<svg width="258" height="77" viewBox="0 0 258 77" fill="none" xmlns="http://www.w3.org/2000/svg">
<g clip-path="url(#clip0_2_15)">
<path d="M124.088 29.3574C123.917 29.3574 123.861 29.4142 123.804 29.5845L122.895 32.0263C122.668 32.6509 122.498 33.2755 122.441 33.9569C122.441 34.5248 122.725 34.8087 123.349 34.8655C123.69 34.9223 124.144 34.979 124.372 34.979C124.826 34.979 124.883 35.1494 124.883 35.263C124.883 35.4901 124.656 35.5469 124.258 35.5469C122.895 35.5469 121.873 35.4333 120.283 35.4333C119.942 35.4333 117.954 35.5469 116.478 35.5469C116.08 35.5469 115.853 35.4333 115.853 35.263C115.853 35.0926 116.08 34.979 116.421 34.979C116.762 34.979 117.046 34.9223 117.386 34.8655C118.465 34.6383 119.033 33.7298 119.658 32.3102L127.722 14.1959C128.29 12.8898 128.631 12.4355 128.972 12.4355C129.312 12.4355 129.54 12.833 130.051 13.9119C130.846 15.6155 135.843 27.0292 137.888 31.572C138.91 33.9001 139.535 34.6383 140.614 34.7519C140.954 34.8087 141.238 34.8655 141.579 34.8655C141.977 34.8655 142.147 34.9791 142.147 35.1494C142.147 35.3198 141.92 35.4333 141.352 35.4333C138.399 35.4333 134.991 35.3765 133.117 35.3198C132.663 35.3198 132.436 35.2062 132.436 35.0358C132.436 34.8655 132.606 34.7519 132.833 34.6951C133.061 34.6383 133.288 34.4112 133.174 34.1273L131.186 29.4142C131.13 29.3006 131.073 29.2438 130.959 29.2438H124.088V29.3574ZM130.051 26.9724C130.221 26.9724 130.221 26.8588 130.221 26.8021L127.552 20.4422C127.438 20.215 127.382 20.2718 127.325 20.4422L124.769 26.8588C124.712 26.9724 124.826 27.0292 124.883 27.0292H130.051V26.9724Z" fill="black"/>
<path d="M150.041 28.0512C150.041 30.4929 149.927 32.3668 150.382 32.9347C150.836 33.5025 151.233 33.5593 153.505 33.5593C154.982 33.5593 155.72 33.5593 156.458 33.2754C157.196 32.9915 157.764 32.3668 158.105 30.8904C158.162 30.6065 158.276 30.3226 158.503 30.3226C158.73 30.3226 158.73 30.4929 158.73 30.8904C158.616 32.2533 158.389 33.5593 158.048 34.9221C157.821 35.6035 157.651 35.6035 156.629 35.6035C152.596 35.6035 150.098 35.4332 147.258 35.4332C146.009 35.4332 144.646 35.5468 143.112 35.5468C142.715 35.5468 142.488 35.4332 142.488 35.2061C142.488 35.0925 142.658 34.9221 142.999 34.9221L143.624 34.8653C144.703 34.695 144.816 34.2407 144.93 31.8558C144.93 30.8336 144.93 29.414 144.93 27.9944V23.4516C144.93 19.136 144.93 18.8521 144.816 18.0003C144.759 17.2621 144.532 16.8646 143.907 16.6943C143.567 16.6375 143.226 16.5807 142.942 16.5239C142.658 16.5239 142.431 16.4103 142.431 16.24C142.431 16.0696 142.658 15.9561 143.169 15.9561C144.759 15.9561 146.122 16.0696 147.258 16.0696C147.428 16.0696 150.893 15.9561 151.858 15.9561C152.369 15.9561 152.483 16.0696 152.483 16.24C152.483 16.4671 152.256 16.5807 151.972 16.5807C151.688 16.5807 151.404 16.6375 151.177 16.6943C150.438 16.8078 150.211 17.3189 150.154 18.2274C150.098 19.0792 150.041 19.4767 150.041 23.7923V28.0512Z" fill="black"/>
<path d="M185.989 32.2533C186.217 33.9568 186.501 34.5815 187.409 34.8086C187.807 34.9222 188.204 34.9789 188.659 34.9789C189.056 35.0357 189.17 35.1493 189.17 35.3197C189.17 35.49 189.056 35.6036 188.602 35.6036C185.989 35.6036 184.399 35.6036 180.878 35.4332C180.424 35.4332 180.31 35.2061 180.31 35.0925C180.31 34.979 180.424 34.8654 180.594 34.8086C181.105 34.6382 181.162 34.5247 181.049 33.2754L180.254 24.5306L174.745 34.0704C174.007 35.4332 173.779 35.5468 173.552 35.5468C173.325 35.5468 173.155 35.3197 172.303 34.1272C171.167 32.3669 169.804 29.9819 168.612 28.0512C168.1 27.2562 167.078 25.3823 166.681 24.7577L165.999 31.2879C165.942 32.594 165.942 33.1051 165.942 33.4458C165.942 34.2407 166.17 34.6382 166.908 34.8086C167.249 34.8654 167.533 34.9222 167.873 34.9222C168.214 34.9222 168.384 35.0357 168.384 35.2061C168.384 35.3764 168.271 35.5468 167.816 35.5468C166.624 35.5468 165.147 35.4332 164.295 35.4332C163.444 35.4332 162.137 35.5468 161.058 35.5468C160.774 35.5468 160.49 35.49 160.49 35.2061C160.49 35.0357 160.604 34.9789 161.002 34.9222C161.286 34.9222 161.456 34.9222 161.797 34.8654C162.592 34.695 162.932 34.2407 163.216 32.3101L165.602 16.6943C165.772 15.8425 165.942 15.5586 166.17 15.5586C166.397 15.5586 166.681 15.8425 167.249 16.6943L175.029 28.5623L182.412 16.5807C182.923 15.8425 183.15 15.6154 183.377 15.6154C183.718 15.6154 183.831 15.9561 183.945 16.6943L185.989 32.2533Z" fill="black"/>
<path d="M195.644 30.6639C195.474 30.6639 195.36 30.8342 195.36 30.9478L194.735 32.481C194.508 32.992 194.338 33.5031 194.281 34.0709C194.281 34.9227 195.417 34.9795 196.098 35.0363C196.496 35.0931 196.553 35.2066 196.553 35.3202C196.553 35.5473 196.382 35.6609 196.041 35.6609C194.735 35.6609 193.827 35.5473 192.293 35.5473C192.009 35.5473 190.249 35.6609 188.943 35.6609C188.545 35.6609 188.375 35.5473 188.375 35.377C188.375 35.2066 188.545 35.0931 188.886 35.0931C190.192 34.9227 190.874 34.582 191.612 32.8217L198.767 17.4898C199.392 16.127 199.676 15.7295 200.017 15.7295C200.358 15.7295 200.585 16.127 201.096 17.1491C201.721 18.6255 206.377 28.3357 208.195 32.3106C209.103 34.2413 209.614 34.9227 210.637 35.0363C210.864 35.0363 211.091 35.0931 211.205 35.0931C211.545 35.0931 211.716 35.2634 211.716 35.377C211.716 35.4906 211.489 35.6609 211.148 35.6609C208.138 35.6041 205.014 35.6041 203.424 35.5473C203.084 35.5473 202.856 35.4338 202.856 35.2634C202.856 35.0931 203.027 35.0363 203.197 34.9795C203.367 34.9227 203.708 34.8659 203.538 34.5252L201.891 30.8342C201.834 30.7206 201.777 30.6639 201.664 30.6639H195.644ZM200.982 28.2789C201.153 28.2789 201.153 28.2221 201.153 28.1653L198.824 22.7708C198.711 22.6004 198.711 22.6572 198.654 22.7708L196.439 28.1085C196.382 28.2221 196.439 28.2221 196.496 28.2221L200.982 28.2789Z" fill="black"/>
<path d="M221.711 28.0521C221.711 30.0395 221.711 32.3109 221.824 33.4466C221.881 34.128 222.108 34.7526 222.904 34.8662C223.244 34.923 223.642 34.9798 223.983 34.9798C224.437 35.0366 224.55 35.1501 224.55 35.3205C224.55 35.4908 224.38 35.5476 223.926 35.5476C222.052 35.5476 219.269 35.4341 218.871 35.4341C218.474 35.4341 215.578 35.5476 214.782 35.5476C214.328 35.5476 214.158 35.4908 214.158 35.2637C214.158 35.0366 214.385 34.9798 214.726 34.923C215.066 34.8662 215.294 34.923 215.578 34.8094C216.145 34.6959 216.373 34.1848 216.429 33.4466C216.543 32.3109 216.543 30.4938 216.543 27.9953V18.058C215.521 18.058 213.76 18.0012 212.454 18.1147C210.977 18.2283 210.466 18.569 210.182 19.5911C210.126 19.7615 210.069 19.9886 209.955 20.159C209.898 20.3293 209.785 20.5565 209.614 20.5565C209.444 20.5565 209.331 20.3293 209.387 19.9886C209.558 18.7394 209.785 17.3765 209.955 16.1841C210.012 15.7866 210.182 15.6162 210.296 15.6162C210.41 15.6162 210.637 15.7298 211.091 15.7866C212.113 15.9001 213.136 16.0137 214.158 16.0137H226.141C226.708 16.0137 227.22 15.9569 227.731 15.9001C228.242 15.7866 228.469 15.7298 228.583 15.7298C228.867 15.7298 228.867 15.9001 228.867 16.6383C228.867 16.9223 228.696 19.6479 228.639 20.2726C228.583 20.67 228.469 20.8404 228.299 20.8404C228.128 20.8404 228.015 20.67 228.015 20.3861C228.015 20.1022 228.015 19.9318 228.015 19.7615C227.901 18.9665 227.617 18.3987 226.197 18.2283C225.232 18.1715 223.812 18.058 221.654 18.058L221.711 28.0521Z" fill="black"/>
<path d="M239.6 28.847C239.657 27.8817 239.373 26.9163 238.805 26.1213C237.612 23.9635 235.17 20.0454 234.261 18.7961C233.126 17.0926 232.899 16.9222 231.99 16.7519C231.876 16.6951 231.592 16.6383 231.422 16.6383C231.138 16.5815 231.024 16.4679 231.024 16.2976C231.024 16.1272 231.252 16.0137 231.592 16.0137C232.842 16.0137 234.829 16.1272 235.908 16.1272C236.306 16.1272 238.237 16.0137 239.997 16.0137C240.338 16.0137 240.508 16.1272 240.508 16.2976C240.508 16.4679 240.395 16.5815 240.054 16.6383C239.259 16.7519 239.089 16.9222 239.089 17.1494C239.145 17.4333 239.202 17.6604 239.373 17.8876C239.77 18.6258 243.007 24.2474 243.462 24.9856C245.449 21.465 246.415 19.5911 246.926 18.5122C247.153 18.1715 247.323 17.7172 247.38 17.3197C247.38 16.979 247.267 16.7519 246.358 16.6383C246.131 16.6383 245.96 16.5247 245.96 16.2976C245.96 16.0705 246.131 16.0137 246.528 16.0137C247.664 16.0137 248.573 16.1272 249.709 16.1272C250.049 16.1272 252.321 16.0137 252.832 16.0137C253.116 16.0137 253.343 16.0705 253.343 16.2408C253.343 16.4112 253.173 16.5815 252.832 16.5815C252.491 16.5815 252.151 16.6951 251.81 16.7519C251.185 16.979 250.617 17.4333 250.276 18.0579C249.368 19.08 245.506 25.5535 245.165 26.6324C244.881 27.4274 244.768 28.2224 244.768 29.0174V30.8345C244.768 31.232 244.768 32.1405 244.825 33.2762C244.881 33.9008 244.938 34.639 245.96 34.8094C246.471 34.923 246.983 34.9798 247.494 34.9798C247.778 34.9798 247.948 35.1501 247.948 35.2637C247.948 35.3772 247.834 35.5476 247.437 35.5476C245.449 35.5476 243.007 35.434 242.099 35.434C241.304 35.434 239.032 35.5476 237.783 35.5476C237.385 35.5476 237.215 35.434 237.215 35.2069C237.215 35.0933 237.328 34.923 237.726 34.923C238.01 34.923 238.35 34.8662 238.634 34.8094C239.373 34.639 239.543 34.128 239.6 33.3898C239.713 32.2541 239.713 31.1752 239.713 30.7777L239.6 28.847Z" fill="black"/>
<path d="M90.5243 59.624C90.3539 59.624 90.2403 59.7943 90.2403 59.9079L89.6156 61.4411C89.3885 61.9521 89.2181 62.52 89.1613 63.031C89.1613 63.8828 90.2971 63.9396 90.9786 63.9964C91.3761 63.9964 91.4897 64.1667 91.4897 64.2803C91.4897 64.5074 91.3193 64.621 90.9786 64.621C89.6724 64.621 88.7638 64.5074 87.2304 64.5074C86.9465 64.5074 85.186 64.621 83.8798 64.621C83.4822 64.621 83.3687 64.5074 83.3687 64.3371C83.3687 64.1667 83.539 64.0532 83.823 64.0532C85.1292 63.8828 85.8106 63.5421 86.6057 61.7818L93.7613 46.4499C94.386 45.0871 94.67 44.6896 95.0107 44.6896C95.3515 44.6896 95.5219 45.0871 96.033 46.1092C96.7145 47.5856 101.315 57.2958 103.132 61.2707C104.04 63.2014 104.552 63.8828 105.574 63.9964C105.801 63.9964 106.028 64.0532 106.198 64.0532C106.539 64.0532 106.71 64.2235 106.71 64.3371C106.71 64.4507 106.482 64.621 106.198 64.621C103.189 64.621 100.065 64.5642 98.475 64.5074C98.1342 64.5074 97.9639 64.3939 97.9639 64.2235C97.9639 64.0532 98.1342 63.9964 98.3046 63.9396C98.475 63.8828 98.8157 63.826 98.6453 63.4853L96.9984 59.7943C96.9416 59.6807 96.8848 59.624 96.7712 59.624H90.5243ZM95.8626 57.239C96.033 57.239 96.033 57.1822 96.033 57.1254L93.6478 51.7877C93.591 51.6173 93.591 51.6741 93.4774 51.8445L91.2626 57.1822C91.2058 57.2958 91.2625 57.2958 91.3761 57.2958H95.8626V57.239ZM100.633 40.2036C100.747 40.6011 100.69 40.7147 100.463 40.7147C99.8947 40.7714 99.27 40.885 98.7021 41.0554C97.1688 41.5097 95.6922 42.0775 94.2725 42.8157C94.0453 42.9293 93.8181 43.0428 93.591 43.0996C93.4206 43.0428 93.307 42.9861 93.307 42.8725C93.3638 42.6453 93.4206 42.475 93.591 42.3046C94.7836 40.885 96.1466 39.5222 97.5663 38.2729C97.7935 37.989 98.1342 37.7619 98.475 37.7051C98.6453 37.7051 98.8157 37.7619 99.0997 38.0458C99.8379 38.6704 100.292 39.4086 100.633 40.2036Z" fill="black"/>
<path d="M113.695 57.8066C113.752 56.8412 113.468 55.8759 112.9 55.0809C111.707 52.9799 109.265 49.0049 108.357 47.7557C107.278 46.1089 106.994 45.8818 106.085 45.7114C105.971 45.6546 105.688 45.5979 105.517 45.5979C105.233 45.5411 105.12 45.4275 105.12 45.2571C105.12 45.0868 105.347 44.9732 105.631 44.9732C106.88 44.9732 108.868 45.0868 109.947 45.0868C110.344 45.0868 112.275 44.9732 114.036 44.9732C114.377 44.9732 114.547 45.0868 114.547 45.2571C114.547 45.4275 114.433 45.5411 114.093 45.5979C113.297 45.7114 113.127 45.8818 113.127 46.1089C113.184 46.3928 113.241 46.62 113.411 46.8471C113.809 47.5853 117.046 53.207 117.5 53.9452C119.488 50.4246 120.453 48.5507 120.964 47.4718C121.191 47.131 121.362 46.6768 121.419 46.2793C121.419 45.9386 121.305 45.7114 120.396 45.5979C120.169 45.5979 119.999 45.4843 119.999 45.2571C119.999 45.03 120.169 44.9732 120.567 44.9732C121.702 44.9732 122.611 45.0868 123.747 45.0868C124.088 45.0868 126.359 44.9732 126.87 44.9732C127.154 44.9732 127.382 45.03 127.382 45.2004C127.382 45.3707 127.211 45.5411 126.87 45.5411C126.53 45.5411 126.189 45.6546 125.848 45.7114C125.224 45.9386 124.656 46.3928 124.315 47.0175C123.406 48.0396 119.544 54.5131 119.204 55.592C118.92 56.3869 118.806 57.1819 118.806 57.9769V59.794C118.806 60.1915 118.806 61.1001 118.863 62.2358C118.92 62.8604 118.92 63.5986 119.942 63.769C120.453 63.8825 120.964 63.9393 121.475 63.9393C121.759 63.9393 121.93 64.1097 121.93 64.2232C121.93 64.3368 121.873 64.5071 121.475 64.5071C119.488 64.5071 117.046 64.3936 116.137 64.3936C115.342 64.3936 113.07 64.5071 111.821 64.5071C111.423 64.5071 111.31 64.3936 111.31 64.1664C111.31 64.0529 111.423 63.8825 111.821 63.8825C112.105 63.8825 112.446 63.8257 112.73 63.769C113.468 63.5986 113.638 63.0875 113.695 62.3493C113.809 61.2704 113.809 60.1347 113.809 59.7372L113.695 57.8066ZM122.895 40.3169C123.009 40.7144 122.952 40.8279 122.725 40.8279C122.157 40.8847 121.532 40.9983 120.964 41.1687C119.431 41.6229 117.954 42.1908 116.535 42.929C116.307 43.0425 116.08 43.1561 115.853 43.2129C115.739 43.2129 115.626 43.0993 115.626 42.9858C115.683 42.7586 115.739 42.5883 115.91 42.4179C117.159 40.9983 118.465 39.6355 119.885 38.3862C120.112 38.1023 120.453 37.8751 120.851 37.8184C121.021 37.8184 121.135 37.8751 121.475 38.1591C122.1 38.7837 122.554 39.5219 122.895 40.3169Z" fill="black"/>
<path d="M131.641 52.4687C131.641 48.153 131.584 47.6988 131.584 46.847C131.641 46.2791 131.186 45.7113 130.618 45.6545C130.335 45.5977 130.107 45.5977 129.823 45.5409C129.426 45.5409 129.369 45.3706 129.369 45.2002C129.369 45.0299 129.539 44.9163 129.937 44.9163C131.527 44.9163 132.833 45.0299 133.969 45.0299H141.749C142.261 45.0299 142.772 44.9731 143.283 44.9163C143.396 44.8595 143.567 44.8595 143.68 44.8027C143.851 44.8027 143.908 44.9163 143.851 45.0867C143.737 45.4842 143.68 45.9384 143.624 46.3359C143.567 47.0173 143.567 47.5284 143.453 49.1184C143.453 49.3455 143.34 49.5159 143.169 49.5159C142.999 49.5159 142.885 49.4023 142.885 49.1752C142.828 48.8344 142.828 48.6073 142.715 48.2098C142.545 47.642 142.204 47.2445 140.954 47.1309C139.989 47.0741 137.774 47.0173 136.922 47.0173C136.752 47.0173 136.695 47.1309 136.695 47.3013V52.8094C136.695 52.9797 136.695 53.0365 136.922 53.0365C137.717 53.0365 139.591 53.0365 140.614 53.0365C142.09 52.9797 142.431 52.8662 142.772 52.3551C142.885 52.128 142.999 52.0144 143.112 52.0144C143.226 52.0144 143.34 52.1847 143.34 52.3551C143.34 52.639 143.169 53.7747 143.112 54.7401C143.056 55.3079 143.056 56.6707 143.056 57.0114C143.056 57.3521 142.942 57.4657 142.772 57.4657C142.601 57.4657 142.488 57.3521 142.488 57.0682C142.431 56.8979 142.431 56.7275 142.431 56.5572C142.261 55.7622 141.977 55.2511 140.557 55.1943C139.705 55.1375 137.661 55.0808 136.865 55.0808C136.695 55.0808 136.695 55.1375 136.695 55.3079V57.1818C136.695 58.0336 136.638 59.2828 136.695 60.305C136.695 62.1221 137.036 62.5763 140.103 62.5763C140.954 62.6331 141.806 62.5196 142.601 62.2924C143.34 62.0085 143.624 61.3839 143.908 60.1914C143.964 59.9075 144.078 59.7371 144.248 59.7371C144.419 59.7371 144.475 59.9642 144.475 60.305C144.419 61.5542 144.305 62.8035 144.078 64.0527C143.851 64.7342 143.68 64.7342 142.658 64.7342C138.626 64.7342 136.752 64.5638 133.912 64.5638C132.663 64.5638 131.357 64.6774 129.823 64.6774C129.312 64.6774 129.199 64.507 129.199 64.3367C129.199 64.1663 129.312 64.0527 129.767 64.0527C130.051 64.0527 130.278 63.996 130.562 63.9392C131.414 63.7688 131.527 62.8035 131.584 60.9296C131.584 59.9642 131.641 58.4878 131.641 57.0682V52.4687Z" fill="black"/>
<path d="M149.87 45.9389C149.87 45.0871 149.984 44.6328 150.382 44.6328C150.552 44.6328 150.666 44.6328 151.404 45.2007C152.71 46.2228 156.799 49.7434 160.15 52.6962C163.103 55.3083 164.522 56.5008 165.318 57.1822L165.147 48.0399C165.09 46.6203 164.92 45.9389 163.727 45.7117C163.387 45.6549 162.989 45.5982 162.648 45.5982C162.308 45.5982 162.137 45.4278 162.137 45.3142C162.137 45.0871 162.364 45.0303 162.648 45.0303C163.614 45.0303 165.488 45.1439 166.681 45.1439C167.362 45.1439 168.725 45.0303 169.804 45.0303C170.258 45.0303 170.372 45.1439 170.372 45.3142C170.372 45.4846 170.315 45.5982 169.918 45.6549C169.69 45.6549 169.52 45.7117 169.293 45.7117C168.384 45.8253 168.1 46.2228 167.987 47.8695C167.76 52.753 167.646 58.034 167.646 63.2582C167.646 64.7346 167.476 65.0185 167.078 65.0185C166.681 65.0185 165.715 64.3371 163.557 62.6336C161.683 61.1004 159.582 59.2265 158.276 58.0908C156.856 56.7847 154.527 54.8541 152.256 52.753L152.54 61.1571C152.596 62.9743 152.653 63.7125 153.448 63.8828C153.903 63.9964 154.357 64.0532 154.811 64.0532C155.266 64.11 155.379 64.2235 155.379 64.3371C155.379 64.4507 155.209 64.621 154.698 64.621C153.959 64.621 153.164 64.5642 151.29 64.5074C150.552 64.5074 148.337 64.621 147.429 64.621C146.974 64.621 146.861 64.5074 146.861 64.3371C146.861 64.1667 146.974 64.0532 147.315 64.0532C147.656 64.0532 147.712 63.9964 148.053 63.9964C149.189 63.826 149.416 63.2582 149.473 60.8732C149.757 55.4219 149.757 49.4027 149.87 45.9389Z" fill="black"/>
<path d="M175.994 52.4694C175.994 48.6648 175.994 48.1537 175.938 47.302C175.881 46.5638 175.824 45.7688 174.631 45.6552L173.78 45.5416C173.382 45.4848 173.325 45.3145 173.325 45.2009C173.325 45.0873 173.382 44.917 173.893 44.917C174.404 44.917 177.017 45.0306 178.323 45.0306C179.231 45.0306 180.31 44.9738 182.696 44.9738C187.58 44.9738 190.93 45.712 193.259 47.9834C194.962 49.7437 195.928 52.1286 195.814 54.5704C195.814 57.2393 194.735 59.7946 192.804 61.6685C191.441 62.9745 189.17 64.7348 183.604 64.7348C182.185 64.7348 179.175 64.4509 178.152 64.4509C176.903 64.4509 175.426 64.5645 174.177 64.5645C173.723 64.5645 173.609 64.3941 173.609 64.2806C173.609 64.167 173.78 63.9966 174.063 63.9966C174.347 63.9966 174.575 63.9399 174.859 63.8831C176.165 63.7695 175.994 61.8956 175.994 57.0121V52.4694ZM181.049 55.4222C181.049 58.1478 181.106 59.7946 181.106 60.3056C181.162 61.4981 181.276 61.8388 181.56 62.1795C182.071 62.7474 183.264 63.0313 184.172 63.0313C185.876 63.0313 187.296 62.8042 188.715 61.3278C190.022 60.0217 190.362 57.58 190.362 55.4789C190.419 53.3779 189.794 51.2769 188.545 49.5733C187.182 47.6994 184.967 46.6205 182.696 46.6773C182.241 46.6205 181.73 46.7341 181.276 46.9045C181.049 47.1316 180.992 47.2452 180.992 52.0719L181.049 55.4222Z" fill="black"/>
<path d="M201.834 52.4687C201.834 48.153 201.777 47.6988 201.72 46.847C201.777 46.2791 201.323 45.7113 200.755 45.6545C200.471 45.5977 200.244 45.5977 199.96 45.5409C199.562 45.5409 199.506 45.3706 199.506 45.2002C199.506 45.0299 199.676 44.9163 200.073 44.9163C201.72 44.9163 202.97 45.0299 204.106 45.0299H211.886C212.397 45.0299 212.908 44.9731 213.419 44.9163C213.533 44.8595 213.703 44.8595 213.817 44.8027C213.987 44.8027 214.044 44.9163 213.987 45.0867C213.874 45.4842 213.817 45.9384 213.76 46.3359C213.76 47.0173 213.703 47.5284 213.59 49.1184C213.59 49.3455 213.476 49.5159 213.306 49.5159C213.135 49.5159 213.022 49.4023 213.022 49.1752C212.965 48.8344 212.965 48.6073 212.851 48.2098C212.681 47.642 212.397 47.2445 211.091 47.1309C210.125 47.0741 207.911 47.0173 207.059 47.0173C206.888 47.0173 206.832 47.1309 206.832 47.3013V52.8094C206.832 52.9797 206.888 53.0365 207.059 53.0365C207.854 53.0365 209.728 53.0365 210.75 53.0365C212.227 52.9797 212.567 52.8662 212.908 52.3551C213.022 52.128 213.135 52.0144 213.249 52.0144C213.363 52.0144 213.476 52.1847 213.476 52.3551C213.476 52.639 213.306 53.7747 213.249 54.7401C213.249 55.3079 213.192 56.6707 213.192 57.0114C213.192 57.3521 213.135 57.4657 212.908 57.4657C212.681 57.4657 212.624 57.3521 212.624 57.0682C212.624 56.8979 212.624 56.7275 212.567 56.5572C212.397 55.7622 212.113 55.2511 210.693 55.1943C209.841 55.1375 207.797 55.0808 207.002 55.0808C206.832 55.0808 206.832 55.1375 206.832 55.3079V57.1818C206.832 58.0336 206.832 59.2828 206.832 60.305C206.888 62.1221 207.172 62.5763 210.239 62.5763C211.091 62.6331 211.943 62.5196 212.738 62.2924C213.476 62.0085 213.76 61.3839 214.044 60.1914C214.101 59.9075 214.214 59.7371 214.385 59.7371C214.555 59.7371 214.612 59.9642 214.612 60.305C214.555 61.5542 214.442 62.8035 214.214 64.0527C213.987 64.7342 213.817 64.7342 212.795 64.7342C208.762 64.7342 206.888 64.5638 204.049 64.5638C202.799 64.5638 201.493 64.6774 199.96 64.6774C199.449 64.6774 199.335 64.507 199.335 64.3367C199.335 64.1663 199.449 64.0527 199.903 64.0527C200.187 64.0527 200.414 63.996 200.698 63.9392C201.55 63.7688 201.664 62.8035 201.72 60.9296C201.72 59.9642 201.777 58.4878 201.777 57.0682L201.834 52.4687Z" fill="black"/>
<path d="M221.37 52.4692C221.37 48.4375 221.37 48.04 221.256 47.1882C221.2 46.0525 220.688 45.7118 220.121 45.6551C219.666 45.5415 219.382 45.5415 219.212 45.5415C218.871 45.5415 218.758 45.3711 218.758 45.2576C218.758 45.144 218.871 44.9736 219.325 44.9736C220.404 44.9736 223.13 45.0872 223.471 45.0872C223.926 45.0872 226.708 44.9736 228.071 44.9736C230.797 44.9736 232.614 45.2576 233.694 45.8254C235.284 46.5636 236.249 48.1536 236.249 49.8571C236.249 51.9014 234.886 53.5481 232.671 54.9677C234.148 57.3527 235.852 59.6241 237.612 61.7819C238.975 63.3719 239.6 63.7694 240.452 63.8829C240.679 63.9397 240.906 63.9397 241.19 63.9965C241.474 63.9965 241.587 64.1669 241.587 64.3372C241.587 64.5643 241.303 64.6211 241.019 64.6211H238.691C235.568 64.6211 234.318 64.3372 233.296 63.7126C232.501 63.2015 231.649 62.1794 230.74 60.5894C229.491 58.4884 229.037 57.6366 228.526 56.8416C228.469 56.7281 228.355 56.6713 228.242 56.6713H226.424C226.311 56.6713 226.197 56.7281 226.197 56.8416C226.197 56.8416 226.197 56.8416 226.197 56.8984V58.4884C226.197 60.4191 226.254 61.6683 226.311 62.4633C226.368 63.1447 226.538 63.6558 227.333 63.8829C227.73 63.9965 228.128 64.0533 228.582 64.0533C229.037 64.0533 229.037 64.2236 229.037 64.394C229.037 64.5643 228.923 64.6779 228.526 64.6779C226.708 64.6779 223.528 64.5643 223.358 64.5643C223.074 64.5643 220.234 64.6779 219.382 64.6779C218.928 64.6779 218.871 64.5076 218.871 64.3372C218.871 64.1669 219.042 64.0533 219.325 64.0533C219.609 64.0533 219.95 63.9965 220.234 63.9397C220.802 63.8261 221.029 63.3719 221.086 62.4633C221.2 61.3844 221.256 59.6241 221.256 57.1256L221.37 52.4692ZM226.311 54.116C226.311 54.2863 226.424 54.3999 226.538 54.5135C227.219 54.7974 228.014 54.9109 228.753 54.8542C229.321 54.8542 229.889 54.7406 230.4 54.4567C230.854 54.116 231.308 53.0371 231.308 51.3903C231.308 47.6993 228.81 46.8475 227.447 46.8475C227.106 46.8475 226.765 46.8475 226.481 46.9611C226.368 47.0179 226.311 47.0747 226.311 47.245V54.116Z" fill="black"/>
<path d="M245.393 52.4692C245.393 48.4375 245.393 47.7561 245.279 46.9043C245.222 46.2229 245.052 45.7686 244.37 45.6551C244.086 45.5983 243.802 45.5415 243.518 45.5415C243.178 45.5415 243.007 45.4279 243.007 45.2576C243.007 45.0872 243.121 44.9736 243.575 44.9736C244.597 44.9736 247.494 45.0872 247.607 45.0872C247.721 45.0872 251.128 44.9736 252.151 44.9736C252.605 44.9736 252.719 45.0872 252.719 45.2576C252.719 45.4279 252.491 45.5415 252.151 45.5415C251.923 45.5415 251.753 45.5983 251.583 45.6551C250.844 45.8254 250.617 46.0525 250.504 46.9611C250.39 47.8697 250.39 48.4375 250.39 52.4692V57.012C250.39 58.9994 250.39 61.4412 250.56 62.5201C250.504 63.1447 250.958 63.7126 251.64 63.8261C251.98 63.8829 252.378 63.9397 252.775 63.9397C253.23 63.9397 253.343 64.1101 253.343 64.2804C253.343 64.4508 253.23 64.5643 252.775 64.5643C250.901 64.5643 247.835 64.4508 247.664 64.4508C247.494 64.4508 244.484 64.5643 243.632 64.5643C243.178 64.5643 243.007 64.4508 243.007 64.2804C243.007 64.1101 243.178 63.9965 243.462 63.9965C243.746 63.9965 243.973 63.9397 244.314 63.8829C244.881 63.7694 245.109 63.2015 245.165 62.4633C245.336 60.6462 245.393 58.8291 245.336 57.012L245.393 52.4692Z" fill="black"/>
<path d="M0.511179 3.80472L14.0841 31.1181C16.1286 35.7745 18.0027 38.1026 20.6719 38.5001L11.8125 12.6063C9.93843 7.15501 11.6421 5.3379 15.22 5.3379H106.767C108.697 4.37256 110.685 3.46401 112.73 2.72581C115.115 1.87404 118.295 0.908699 121.702 -0.0566406H1.98774C0.738342 0.000144035 -0.795006 1.41976 0.511179 3.80472Z" fill="#D4A351"/>
<path d="M54.3486 70.5833H52.2473V75.9211H53.2128V74.0472H54.2918C55.2004 74.0472 55.9955 73.3657 55.9955 72.4004C55.9955 72.3436 55.9955 72.2868 55.9955 72.23C56.0523 71.3215 55.3708 70.5265 54.4622 70.4697C54.4622 70.5833 54.4054 70.5833 54.3486 70.5833ZM54.1782 73.2522H53.2695V71.4351H54.1782C54.6325 71.3783 55.0301 71.7758 55.0868 72.23C55.0868 72.2868 55.0868 72.3436 55.0868 72.3436C55.1436 72.7979 54.7461 73.1954 54.2918 73.2522C54.2918 73.2522 54.235 73.2522 54.1782 73.2522Z" fill="#D4A351"/>
<path d="M58.6647 73.7062H60.482V72.8544H58.6647V71.4348H60.8795V70.583H57.6992V75.9776H60.9931V75.1258H58.6647V73.7062Z" fill="#D4A351"/>
<path d="M65.1389 75.1826C64.1735 75.1826 63.3216 74.3876 63.3216 73.4222C63.3216 73.3655 63.3216 73.3087 63.3216 73.3087C63.2648 72.3433 63.9463 71.5483 64.855 71.4916C64.9118 71.4916 65.0254 71.4916 65.0821 71.4916C65.5933 71.4916 66.1612 71.7187 66.5587 72.0594L67.013 71.3212C66.4451 70.8101 65.7636 70.583 65.0254 70.583C63.492 70.6398 62.2994 71.9458 62.3562 73.479C62.413 74.8986 63.5488 76.0343 65.0254 76.1479C65.8204 76.1479 66.5587 75.864 67.1266 75.2961L66.6155 74.6147C66.2748 74.8986 65.7068 75.1258 65.1389 75.1826Z" fill="#D4A351"/>
<path d="M68.8303 75.9776H69.7958V71.4348H72.181V75.9776H73.1464V70.583H68.8303V75.9776Z" fill="#D4A351"/>
<path d="M77.2921 73.0249C77.1785 73.3656 77.0649 73.7063 77.0649 73.7063C77.0649 73.7063 76.9514 73.3656 76.781 72.9681L75.6452 70.5832H74.5662L76.6674 74.7284C76.5538 75.0124 76.3835 75.1827 76.0995 75.1827C75.8723 75.1827 75.702 75.0691 75.5316 74.8988L75.0773 75.637C75.3612 75.8641 75.7588 75.9777 76.1563 75.9777C76.9514 75.9777 77.2921 75.3531 77.5193 74.7852L79.1662 70.5264H78.144L77.2921 73.0249Z" fill="#D4A351"/>
<path d="M82.6304 72.684H81.5514V71.4348H83.8798V70.583H80.5859V75.9208H82.6304C83.5391 75.9776 84.3341 75.2961 84.3909 74.3876C84.4477 73.479 83.7662 72.684 82.8576 72.6273C82.8008 72.684 82.744 72.684 82.6304 72.684ZM82.5168 75.1258H81.6082V73.5358H82.5168C82.9712 73.479 83.3119 73.8197 83.3687 74.2172C83.3687 74.274 83.3687 74.274 83.3687 74.3308C83.3687 74.7283 83.0847 75.1258 82.6872 75.1258C82.5736 75.1258 82.5168 75.1258 82.5168 75.1258Z" fill="#D4A351"/>
<path d="M86.6058 72.0593C86.6058 74.1603 86.265 75.0121 85.47 75.1256V76.0342C86.9465 75.9774 87.5712 74.6714 87.5712 72.0593V71.4346H88.991V75.9774H89.9564V70.6396H86.6626L86.6058 72.0593Z" fill="#D4A351"/>
<path d="M93.3639 73.706C93.1936 74.0467 92.9096 74.5578 92.9096 74.5578C92.9096 74.5578 92.9664 74.0467 92.9664 73.706V70.6396H92.001V75.9774H92.9664L95.0109 72.911C95.238 72.5703 95.4652 72.0593 95.4652 72.0593C95.4652 72.0593 95.4084 72.5703 95.4084 72.911V75.9774H96.3739V70.6396H95.4084L93.3639 73.706Z" fill="#D4A351"/>
<path d="M100.917 73.1383L102.45 70.583H101.371L100.122 72.7976H99.4405V70.583H98.4751V75.9776H99.4405V73.6494H100.122L101.428 75.9776H102.507L100.917 73.1951V73.1383Z" fill="#D4A351"/>
<path d="M105.29 70.583L103.416 75.9208H104.438L104.892 74.5579H106.766L107.221 75.9208H108.243L106.369 70.583H105.29ZM105.119 73.8197L105.631 72.4001C105.744 72.1162 105.858 71.5483 105.858 71.5483C105.858 71.5483 105.971 72.0594 106.085 72.4001L106.539 73.8197H105.119Z" fill="#D4A351"/>
<path d="M114.831 75.1827C113.865 75.1827 113.014 74.4445 113.014 73.4224C113.014 73.3656 113.014 73.3088 113.014 73.252C112.957 72.2867 113.638 71.4917 114.547 71.4349C114.604 71.4349 114.717 71.4349 114.774 71.4349C115.285 71.4349 115.853 71.6621 116.251 72.0028L116.705 71.2646C116.137 70.7535 115.456 70.5264 114.717 70.5264C113.184 70.5832 111.991 71.8892 112.048 73.4224C112.105 74.842 113.241 75.9777 114.717 76.0913C115.512 76.0913 116.251 75.8073 116.818 75.2395L116.307 74.5581C115.967 74.8988 115.399 75.1259 114.831 75.1827Z" fill="#D4A351"/>
<path d="M119.828 70.583L117.954 75.9208H118.976L119.431 74.5579H121.305L121.759 75.9208H122.781L120.907 70.583H119.828ZM119.658 73.8197L120.169 72.4001C120.283 72.1162 120.396 71.5483 120.396 71.5483C120.396 71.5483 120.51 72.0594 120.623 72.4001L121.078 73.8197H119.658Z" fill="#D4A351"/>
<path d="M126.246 70.5833H124.201V75.9211H125.167V74.0472H126.246C127.154 74.0472 127.949 73.3657 127.949 72.4004C127.949 72.3436 127.949 72.2868 127.949 72.23C128.006 71.3215 127.325 70.5265 126.416 70.4697C126.359 70.5833 126.302 70.5833 126.246 70.5833ZM126.075 73.2522H125.167V71.4351H126.075C126.53 71.3783 126.927 71.7758 126.984 72.23C126.984 72.2868 126.984 72.3436 126.984 72.3436C127.041 72.7979 126.7 73.1954 126.246 73.2522C126.189 73.2522 126.132 73.2522 126.075 73.2522Z" fill="#D4A351"/>
<path d="M130.562 70.583L128.688 75.9208H129.71L130.164 74.5579H132.038L132.493 75.9208H133.515L131.641 70.583H130.562ZM130.391 73.8197L130.903 72.4001C131.016 72.1162 131.13 71.5483 131.13 71.5483C131.13 71.5483 131.243 72.0594 131.357 72.4001L131.811 73.8197H130.391Z" fill="#D4A351"/>
<path d="M135.957 69.2207V69.3343C136.07 70.0157 136.752 70.47 137.433 70.3564C137.944 70.2428 138.342 69.8453 138.456 69.3343V69.2207H137.717V69.3343C137.717 69.6182 137.49 69.7886 137.263 69.8453H137.206C136.922 69.8453 136.695 69.675 136.695 69.3911C136.695 69.3911 136.695 69.3911 136.695 69.3343V69.2207H135.957Z" fill="#D4A351"/>
<path d="M136.354 73.706C136.184 74.0467 135.9 74.5578 135.9 74.5578C135.9 74.5578 135.957 74.0467 135.957 73.706V70.6396H134.991V75.9774H135.957L138.001 72.911C138.229 72.5703 138.456 72.0593 138.456 72.0593C138.456 72.0593 138.399 72.5703 138.399 72.911V75.9774H139.364V70.6396H138.399L136.354 73.706Z" fill="#D4A351"/>
<path d="M143.396 72.5135H142.374V70.6396H141.409V76.0342H143.396C144.362 76.0342 145.157 75.2392 145.157 74.2739C145.157 73.2517 144.362 72.5135 143.396 72.5135ZM143.226 75.1256H142.374V73.3085H143.226C143.68 73.3085 144.078 73.6492 144.078 74.1035C144.078 74.1603 144.078 74.2171 144.078 74.2171C144.135 74.6714 143.851 75.0689 143.396 75.1256C143.34 75.1256 143.283 75.1256 143.226 75.1256Z" fill="#D4A351"/>
<path d="M146.69 70.583H145.725V75.9208H146.69V70.583Z" fill="#D4A351"/>
<path d="M152.653 72.5137C151.972 72.5137 151.404 73.0815 151.404 73.7629C151.404 74.4444 151.972 75.0122 152.653 75.0122C153.335 75.0122 153.903 74.4444 153.903 73.7629C153.903 73.0815 153.335 72.5137 152.653 72.5137Z" fill="#D4A351"/>
<path d="M162.648 70.583H159.298V71.7755C159.355 72.968 159.071 74.1037 158.503 75.1258H157.935V76.9997H158.843V75.9208H162.308V76.9997H163.16V75.1258H162.592L162.648 70.583ZM161.626 75.1258H159.468C159.979 74.1037 160.206 72.968 160.15 71.8323V71.4348H161.569V75.1258H161.626Z" fill="#D4A351"/>
<path d="M167.816 73.1382C168.214 72.911 168.498 72.4568 168.441 72.0025C168.441 71.0939 167.76 70.6396 166.794 70.6396H164.863V76.0342H166.794C167.76 76.0342 168.668 75.5231 168.668 74.501C168.782 73.8764 168.384 73.3085 167.816 73.1382ZM165.886 71.4346H166.794C167.135 71.3778 167.476 71.605 167.476 71.9457C167.476 72.0025 167.476 72.0593 167.476 72.0593C167.476 72.4 167.248 72.7407 166.908 72.7407H166.851H165.886V71.4346ZM166.908 75.1256H165.886V73.5925H166.965C167.419 73.5357 167.76 73.8764 167.816 74.2739C167.873 74.7281 167.532 75.0689 167.135 75.1256C167.078 75.1256 167.021 75.1256 166.908 75.1256Z" fill="#D4A351"/>
<path d="M172.928 70.5264C171.451 70.4696 170.202 71.6621 170.145 73.1952C170.145 73.252 170.145 73.252 170.145 73.3088C170.088 74.842 171.281 76.148 172.814 76.2048C174.347 76.2616 175.653 75.0691 175.71 73.5359C175.71 73.4792 175.71 73.3656 175.71 73.3088C175.71 71.8324 174.518 70.5831 173.041 70.5831C172.984 70.5264 172.928 70.5264 172.928 70.5264ZM172.928 75.1827C171.905 75.1259 171.11 74.3309 171.167 73.3088C171.167 73.3088 171.167 73.3088 171.167 73.252C171.11 72.2867 171.848 71.4349 172.814 71.3781C173.779 71.3213 174.631 72.0595 174.688 73.0249C174.688 73.0817 174.688 73.1385 174.688 73.252C174.745 74.2741 173.95 75.1259 172.928 75.1827Z" fill="#D4A351"/>
<path d="M179.515 70.5833H177.471V75.9211H178.436V74.0472H179.515C180.424 74.0472 181.219 73.3657 181.219 72.4004C181.219 72.3436 181.219 72.2868 181.219 72.23C181.276 71.3215 180.594 70.5265 179.686 70.4697C179.629 70.5833 179.572 70.5833 179.515 70.5833ZM179.345 73.2522H178.436V71.4351H179.345C179.799 71.3783 180.197 71.7758 180.254 72.23C180.254 72.2868 180.254 72.3436 180.254 72.3436C180.31 72.7979 179.913 73.1954 179.459 73.2522C179.402 73.2522 179.345 73.2522 179.345 73.2522Z" fill="#D4A351"/>
<path d="M183.775 73.7062H185.592V72.8544H183.775V71.4348H186.046V70.583H182.809V75.9776H186.16V75.1258H183.775V73.7062Z" fill="#D4A351"/>
<path d="M192.123 70.583H191.157V75.1258H188.829V70.583H187.864V75.9776H191.896V76.9997H192.804V75.1258H192.123V70.583Z" fill="#D4A351"/>
<path d="M199.165 70.5833H197.12V75.9211H198.086V74.0472H199.165C200.073 74.0472 200.869 73.3657 200.869 72.4004C200.869 72.3436 200.869 72.2868 200.869 72.23C200.925 71.3215 200.244 70.5265 199.335 70.4697C199.278 70.5833 199.222 70.5833 199.165 70.5833ZM198.994 73.2522H198.086V71.4351H198.994C199.449 71.3783 199.846 71.7758 199.903 72.23C199.903 72.2868 199.903 72.3436 199.903 72.3436C199.96 72.7979 199.562 73.1954 199.108 73.2522C199.051 73.2522 199.051 73.2522 198.994 73.2522Z" fill="#D4A351"/>
<path d="M203.481 73.7062H205.241V72.8544H203.481V71.4348H205.696V70.583H202.459V75.9776H205.809V75.1258H203.481V73.7062Z" fill="#D4A351"/>
<path d="M209.955 75.1826C208.99 75.1826 208.138 74.3876 208.138 73.4222C208.138 73.3655 208.138 73.3087 208.138 73.3087C208.081 72.3433 208.763 71.5483 209.671 71.4916C209.728 71.4916 209.842 71.4916 209.898 71.4916C210.409 71.4916 210.977 71.7187 211.375 72.0594L211.829 71.3212C211.261 70.8101 210.58 70.583 209.842 70.583C208.308 70.6398 207.116 71.9458 207.172 73.479C207.229 74.8986 208.365 76.0343 209.842 76.1479C210.637 76.1479 211.375 75.864 211.943 75.2961L211.432 74.6147C211.091 74.8986 210.523 75.1258 209.955 75.1826Z" fill="#D4A351"/>
<path d="M213.59 75.9776H214.612V71.4348H216.997V75.9776H217.962V70.583H213.59V75.9776Z" fill="#D4A351"/>
<path d="M222.108 73.0249C221.995 73.3656 221.881 73.7063 221.881 73.7063C221.881 73.7063 221.768 73.3656 221.597 72.9681L220.461 70.5832H219.382L221.484 74.7284C221.37 75.0124 221.2 75.1827 220.916 75.1827C220.689 75.1827 220.461 75.0691 220.291 74.8988L219.837 75.637C220.121 75.8641 220.518 75.9777 220.916 75.9777C221.711 75.9777 222.051 75.3531 222.279 74.7852L223.926 70.5264H222.903L222.108 73.0249Z" fill="#D4A351"/>
<path d="M227.447 72.684H226.368V71.4348H228.696V70.583H225.402V75.9208H227.447C228.355 75.9776 229.15 75.2961 229.207 74.3876C229.264 73.479 228.582 72.684 227.674 72.6273C227.617 72.684 227.56 72.684 227.447 72.684ZM227.276 75.1258H226.368V73.5358H227.276C227.674 73.479 228.071 73.8197 228.128 74.2172C228.128 74.274 228.128 74.274 228.128 74.3308C228.128 74.7283 227.844 75.1258 227.447 75.1258C227.39 75.1258 227.333 75.1258 227.276 75.1258Z" fill="#D4A351"/>
<path d="M231.422 72.0593C231.422 74.1603 231.081 75.0121 230.286 75.1256V76.0342C231.763 75.9774 232.387 74.6714 232.387 72.0593V71.4346H233.807V75.9774H234.773V70.6396H231.422V72.0593Z" fill="#D4A351"/>
<path d="M238.18 73.706C238.01 74.0467 237.726 74.5578 237.726 74.5578C237.726 74.5578 237.783 74.0467 237.783 73.706V70.6396H236.817V75.9774H237.783L239.827 72.911C240.054 72.5703 240.281 72.0593 240.281 72.0593C240.281 72.0593 240.225 72.5703 240.225 72.911V75.9774H241.19V70.6396H240.225L238.18 73.706Z" fill="#D4A351"/>
<path d="M245.733 73.1383L247.267 70.583H246.187L244.938 72.7976H244.2V70.583H243.234V75.9776H244.2V73.6494H244.938L246.244 75.9776H247.323L245.733 73.1951V73.1383Z" fill="#D4A351"/>
<path d="M250.22 73.706C250.049 74.0467 249.765 74.5578 249.765 74.5578C249.765 74.5578 249.822 74.0467 249.822 73.706V70.6396H248.857V75.9774H249.822L251.867 72.911C252.094 72.5703 252.321 72.0593 252.321 72.0593C252.321 72.0593 252.264 72.5703 252.264 72.911V75.9774H253.23V70.6396H252.264L250.22 73.706Z" fill="#D4A351"/>
<path d="M25.8964 23.2812H33.9607C34.3014 23.2812 34.5854 23.5652 34.5854 23.9059V26.2341C34.5854 26.5748 34.3014 26.8587 33.9607 26.8587H25.8964C25.5557 26.8587 25.2717 26.5748 25.2717 26.2341V23.9059C25.2717 23.5652 25.5557 23.2812 25.8964 23.2812Z" fill="#D4A351"/>
<path d="M25.8964 27.7109H33.9607C34.3014 27.7109 34.5854 27.9949 34.5854 28.3356V30.6637C34.5854 31.0044 34.3014 31.2884 33.9607 31.2884H25.8964C25.5557 31.2884 25.2717 31.0044 25.2717 30.6637V28.3356C25.2717 27.9949 25.5557 27.7109 25.8964 27.7109Z" fill="#D4A351"/>
<path d="M25.8964 32.1973H33.9607C34.3014 32.1973 34.5854 32.4812 34.5854 32.8219V35.1501C34.5854 35.4908 34.3014 35.7747 33.9607 35.7747H25.8964C25.5557 35.7747 25.2717 35.4908 25.2717 35.1501V32.8219C25.2717 32.4812 25.5557 32.1973 25.8964 32.1973Z" fill="#D4A351"/>
<path d="M40.2646 27.7109H48.3289C48.6696 27.7109 48.9536 27.9949 48.9536 28.3356V30.6637C48.9536 31.0044 48.6696 31.2884 48.3289 31.2884H40.2646C39.9238 31.2884 39.6399 31.0044 39.6399 30.6637V28.3356C39.6399 27.9949 39.9238 27.7109 40.2646 27.7109Z" fill="#D4A351"/>
<path d="M40.2646 32.1973H48.3289C48.6696 32.1973 48.9536 32.4812 48.9536 32.8219V35.1501C48.9536 35.4908 48.6696 35.7747 48.3289 35.7747H40.2646C39.9238 35.7747 39.6399 35.4908 39.6399 35.1501V32.8219C39.6399 32.4812 39.9238 32.1973 40.2646 32.1973Z" fill="#D4A351"/>
<path d="M54.6325 18.8525H62.6968C63.0375 18.8525 63.3215 19.1365 63.3215 19.4772V21.8053C63.3215 22.1461 63.0375 22.43 62.6968 22.43H54.6325C54.2918 22.43 54.0078 22.1461 54.0078 21.8053V19.4772C54.0078 19.1365 54.2918 18.8525 54.6325 18.8525Z" fill="#D4A351"/>
<path d="M54.6325 23.2812H62.6968C63.0375 23.2812 63.3215 23.5652 63.3215 23.9059V26.2341C63.3215 26.5748 63.0375 26.8587 62.6968 26.8587H54.6325C54.2918 26.8587 54.0078 26.5748 54.0078 26.2341V23.9059C54.0078 23.5652 54.2918 23.2812 54.6325 23.2812Z" fill="#D4A351"/>
<path d="M54.6325 27.7109H62.6968C63.0375 27.7109 63.3215 27.9949 63.3215 28.3356V30.6637C63.3215 31.0044 63.0375 31.2884 62.6968 31.2884H54.6325C54.2918 31.2884 54.0078 31.0044 54.0078 30.6637V28.3356C54.0078 27.9949 54.2918 27.7109 54.6325 27.7109Z" fill="#D4A351"/>
<path d="M54.6325 32.1973H62.6968C63.0375 32.1973 63.3215 32.4812 63.3215 32.8219V35.1501C63.3215 35.4908 63.0375 35.7747 62.6968 35.7747H54.6325C54.2918 35.7747 54.0078 35.4908 54.0078 35.1501V32.8219C54.0078 32.4812 54.2918 32.1973 54.6325 32.1973Z" fill="#D4A351"/>
<path d="M68.9438 9.9375H77.0081C77.3488 9.9375 77.6328 10.2214 77.6328 10.5621V12.8903C77.6328 13.231 77.3488 13.5149 77.0081 13.5149H68.9438C68.603 13.5149 68.3191 13.231 68.3191 12.8903V10.5621C68.3191 10.2214 68.603 9.9375 68.9438 9.9375Z" fill="#D4A351"/>
<path d="M68.9438 14.3662H77.0081C77.3488 14.3662 77.6328 14.6501 77.6328 14.9908V17.319C77.6328 17.6597 77.3488 17.9436 77.0081 17.9436H68.9438C68.603 17.9436 68.3191 17.6597 68.3191 17.319V14.9908C68.3191 14.6501 68.603 14.3662 68.9438 14.3662Z" fill="#D4A351"/>
<path d="M68.9438 18.8525H77.0081C77.3488 18.8525 77.6328 19.1365 77.6328 19.4772V21.8053C77.6328 22.1461 77.3488 22.43 77.0081 22.43H68.9438C68.603 22.43 68.3191 22.1461 68.3191 21.8053V19.4772C68.3191 19.1365 68.603 18.8525 68.9438 18.8525Z" fill="#D4A351"/>
<path d="M68.9438 23.2812H77.0081C77.3488 23.2812 77.6328 23.5652 77.6328 23.9059V26.2341C77.6328 26.5748 77.3488 26.8587 77.0081 26.8587H68.9438C68.603 26.8587 68.3191 26.5748 68.3191 26.2341V23.9059C68.3191 23.5652 68.603 23.2812 68.9438 23.2812Z" fill="#D4A351"/>
<path d="M68.9438 27.7109H77.0081C77.3488 27.7109 77.6328 27.9949 77.6328 28.3356V30.6637C77.6328 31.0044 77.3488 31.2884 77.0081 31.2884H68.9438C68.603 31.2884 68.3191 31.0044 68.3191 30.6637V28.3356C68.3191 27.9949 68.603 27.7109 68.9438 27.7109Z" fill="#D4A351"/>
<path d="M68.9438 32.1973H77.0081C77.3488 32.1973 77.6328 32.4812 77.6328 32.8219V35.1501C77.6328 35.4908 77.3488 35.7747 77.0081 35.7747H68.9438C68.603 35.7747 68.3191 35.4908 68.3191 35.1501V32.8219C68.3191 32.4812 68.603 32.1973 68.9438 32.1973Z" fill="#D4A351"/>
<path d="M97.6799 9.9375H105.744C106.085 9.9375 106.369 10.2214 106.369 10.5621V12.8903C106.369 13.231 106.085 13.5149 105.744 13.5149H97.6799C97.3391 13.5149 97.0552 13.231 97.0552 12.8903V10.5621C97.0552 10.2214 97.2823 9.9375 97.6799 9.9375Z" fill="#D4A351"/>
<path d="M97.6799 14.3662H105.744C106.085 14.3662 106.369 14.6501 106.369 14.9908V17.319C106.369 17.6597 106.085 17.9436 105.744 17.9436H97.6799C97.3391 17.9436 97.0552 17.6597 97.0552 17.319V14.9908C97.0552 14.6501 97.2823 14.3662 97.6799 14.3662Z" fill="#D4A351"/>
<path d="M97.6799 18.8525H105.744C106.085 18.8525 106.369 19.1365 106.369 19.4772V21.8053C106.369 22.1461 106.085 22.43 105.744 22.43H97.6799C97.3391 22.43 97.0552 22.1461 97.0552 21.8053V19.4772C97.0552 19.1365 97.2823 18.8525 97.6799 18.8525Z" fill="#D4A351"/>
<path d="M97.6799 23.2812H105.744C106.085 23.2812 106.369 23.5652 106.369 23.9059V26.2341C106.369 26.5748 106.085 26.8587 105.744 26.8587H97.6799C97.3391 26.8587 97.0552 26.5748 97.0552 26.2341V23.9059C97.0552 23.5652 97.2823 23.2812 97.6799 23.2812Z" fill="#D4A351"/>
<path d="M97.6799 27.7109H105.744C106.085 27.7109 106.369 27.9949 106.369 28.3356V30.6637C106.369 31.0044 106.085 31.2884 105.744 31.2884H97.6799C97.3391 31.2884 97.0552 31.0044 97.0552 30.6637V28.3356C97.0552 27.9949 97.2823 27.7109 97.6799 27.7109Z" fill="#D4A351"/>
<path d="M97.6799 32.1973H105.744C106.085 32.1973 106.369 32.4812 106.369 32.8219V35.1501C106.369 35.4908 106.085 35.7747 105.744 35.7747H97.6799C97.3391 35.7747 97.0552 35.4908 97.0552 35.1501V32.8219C97.0552 32.4812 97.2823 32.1973 97.6799 32.1973Z" fill="#D4A351"/>
<path d="M83.3119 14.3662H91.3762C91.717 14.3662 92.0009 14.6501 92.0009 14.9908V17.319C92.0009 17.6597 91.717 17.9436 91.3762 17.9436H83.3119C82.9712 17.9436 82.6873 17.6597 82.6873 17.319V14.9908C82.6873 14.6501 82.9712 14.3662 83.3119 14.3662Z" fill="#D4A351"/>
<path d="M83.3119 18.8525H91.3762C91.717 18.8525 92.0009 19.1365 92.0009 19.4772V21.8053C92.0009 22.1461 91.717 22.43 91.3762 22.43H83.3119C82.9712 22.43 82.6873 22.1461 82.6873 21.8053V19.4772C82.6873 19.1365 82.9712 18.8525 83.3119 18.8525Z" fill="#D4A351"/>
<path d="M83.3119 23.2812H91.3762C91.717 23.2812 92.0009 23.5652 92.0009 23.9059V26.2341C92.0009 26.5748 91.717 26.8587 91.3762 26.8587H83.3119C82.9712 26.8587 82.6873 26.5748 82.6873 26.2341V23.9059C82.6873 23.5652 82.9712 23.2812 83.3119 23.2812Z" fill="#D4A351"/>
<path d="M83.3119 27.7109H91.3762C91.717 27.7109 92.0009 27.9949 92.0009 28.3356V30.6637C92.0009 31.0044 91.717 31.2884 91.3762 31.2884H83.3119C82.9712 31.2884 82.6873 31.0044 82.6873 30.6637V28.3356C82.6873 27.9949 82.9712 27.7109 83.3119 27.7109Z" fill="#D4A351"/>
<path d="M83.3119 32.1973H91.3762C91.717 32.1973 92.0009 32.4812 92.0009 32.8219V35.1501C92.0009 35.4908 91.717 35.7747 91.3762 35.7747H83.3119C82.9712 35.7747 82.6873 35.4908 82.6873 35.1501V32.8219C82.6873 32.4812 82.9712 32.1973 83.3119 32.1973Z" fill="#D4A351"/>
<path d="M123.633 39.4083C123.69 39.5787 123.804 39.7491 123.86 39.9194C124.031 40.3737 124.031 40.9415 123.747 41.339C123.69 41.3958 123.69 41.4526 123.633 41.4526H254.706C255.615 40.828 256.751 40.0898 258 39.3516L123.633 39.4083Z" fill="#D4A351"/>
<path d="M101.428 39.4083C101.485 39.5787 101.542 39.6923 101.655 39.8626C101.882 40.3169 101.826 40.8847 101.542 41.2822C101.485 41.339 101.428 41.3958 101.371 41.4526H115.399C115.91 40.828 116.648 40.0898 117.33 39.3516H101.428V39.4083Z" fill="#D4A351"/>
<path d="M38.7881 39.4083L39.4696 41.5094H47.9314V41.5662C47.9314 41.5662 50.7141 42.2476 51.6228 43.0993C52.1907 43.6672 52.2475 44.0647 52.2475 44.1783V62.9172C55.2006 59.8508 58.5512 57.2387 62.2994 55.1377V44.1215C62.2994 44.0079 62.2994 43.6104 62.9241 43.0426C63.5488 42.4747 65.139 41.9637 65.9908 41.6797C66.8427 41.9069 68.4328 42.4179 69.0575 43.0426C69.6822 43.6672 69.6822 44.0079 69.6822 44.1215V51.4467C72.9761 50.0839 76.3267 48.9482 79.7342 48.0396V44.1215C79.7342 44.0079 79.7909 43.6104 80.3589 43.0426C81.2675 42.1908 84.0502 41.5094 84.0502 41.5094V41.4526H93.0232C93.5343 40.828 94.2726 40.0898 94.9541 39.3516H38.7881V39.4083Z" fill="#D4A351"/>
</g>
<defs>
<clipPath id="clip0_2_15">
<rect width="258" height="77" fill="white"/>
</clipPath>
</defs>
</svg>
