<svg width="362" height="108" viewBox="0 0 362 108" fill="none" xmlns="http://www.w3.org/2000/svg">
<g clip-path="url(#clip0_6_260)">
<path d="M174.107 41.1769C173.868 41.1769 173.789 41.2565 173.709 41.4955L172.434 44.9203C172.115 45.7964 171.876 46.6725 171.797 47.6282C171.797 48.4247 172.195 48.8229 173.072 48.9026C173.55 48.9822 174.187 49.0618 174.506 49.0618C175.143 49.0618 175.223 49.3008 175.223 49.4601C175.223 49.7787 174.904 49.8583 174.347 49.8583C172.434 49.8583 171 49.699 168.769 49.699C168.291 49.699 165.502 49.8583 163.43 49.8583C162.872 49.8583 162.553 49.699 162.553 49.4601C162.553 49.2211 162.872 49.0618 163.35 49.0618C163.828 49.0618 164.227 48.9822 164.705 48.9026C166.219 48.584 167.016 47.3096 167.892 45.3185L179.207 19.9114C180.004 18.0796 180.482 17.4424 180.96 17.4424C181.438 17.4424 181.757 17.9999 182.474 19.5132C183.59 21.9026 190.602 37.9114 193.47 44.2831C194.905 47.5486 195.781 48.584 197.295 48.7433C197.773 48.8229 198.172 48.9026 198.65 48.9026C199.208 48.9026 199.447 49.0618 199.447 49.3008C199.447 49.5397 199.128 49.699 198.331 49.699C194.188 49.699 189.407 49.6194 186.777 49.5397C186.14 49.5397 185.821 49.3804 185.821 49.1415C185.821 48.9026 186.06 48.7433 186.379 48.6636C186.697 48.584 187.016 48.2654 186.857 47.8672L184.068 41.2565C183.988 41.0972 183.909 41.0176 183.749 41.0176H174.107V41.1769ZM182.474 37.8318C182.713 37.8318 182.713 37.6725 182.713 37.5928L178.968 28.6725C178.809 28.3539 178.729 28.4335 178.649 28.6725L175.064 37.6725C174.984 37.8318 175.143 37.9114 175.223 37.9114H182.474V37.8318Z" fill="white"/>
<path d="M210.523 39.3455C210.523 42.7702 210.363 45.3986 211.001 46.195C211.638 46.9915 212.196 47.0711 215.383 47.0711C217.455 47.0711 218.491 47.0711 219.527 46.6729C220.563 46.2747 221.359 45.3986 221.837 43.3278C221.917 42.9295 222.077 42.5313 222.395 42.5313C222.714 42.5313 222.714 42.7702 222.714 43.3278C222.555 45.2393 222.236 47.0711 221.758 48.9826C221.439 49.9384 221.2 49.9384 219.766 49.9384C214.108 49.9384 210.602 49.6994 206.618 49.6994C204.865 49.6994 202.953 49.8587 200.801 49.8587C200.243 49.8587 199.925 49.6994 199.925 49.3809C199.925 49.2216 200.164 48.9826 200.642 48.9826L201.518 48.903C203.032 48.664 203.192 48.0269 203.351 44.6817C203.351 43.2481 203.351 41.257 203.351 39.2658V32.8941C203.351 26.841 203.351 26.4428 203.192 25.2481C203.112 24.2127 202.793 23.6552 201.917 23.4163C201.439 23.3366 200.961 23.257 200.562 23.1773C200.164 23.1773 199.845 23.018 199.845 22.7791C199.845 22.5402 200.164 22.3809 200.881 22.3809C203.112 22.3809 205.024 22.5402 206.618 22.5402C206.857 22.5402 211.718 22.3809 213.072 22.3809C213.789 22.3809 213.949 22.5402 213.949 22.7791C213.949 23.0977 213.63 23.257 213.232 23.257C212.833 23.257 212.435 23.3366 212.116 23.4163C211.08 23.5755 210.762 24.2924 210.682 25.5667C210.602 26.7614 210.523 27.3189 210.523 33.372V39.3455Z" fill="white"/>
<path d="M260.962 45.2392C261.281 47.6286 261.679 48.5047 262.954 48.8232C263.512 48.9825 264.07 49.0622 264.707 49.0622C265.265 49.1418 265.424 49.3011 265.424 49.5401C265.424 49.779 265.265 49.9383 264.627 49.9383C260.962 49.9383 258.731 49.9383 253.791 49.6994C253.153 49.6994 252.994 49.3808 252.994 49.2215C252.994 49.0622 253.153 48.9029 253.392 48.8232C254.109 48.5843 254.189 48.425 254.03 46.6728L252.914 34.4073L245.185 47.7878C244.149 49.6994 243.83 49.8586 243.511 49.8586C243.193 49.8586 242.954 49.5401 241.758 47.8675C240.165 45.3985 238.252 42.0533 236.579 39.3454C235.862 38.2303 234.428 35.602 233.87 34.7259L232.914 43.8852C232.834 45.717 232.834 46.4339 232.834 46.9117C232.834 48.0268 233.153 48.5843 234.189 48.8232C234.667 48.9029 235.065 48.9825 235.543 48.9825C236.021 48.9825 236.26 49.1418 236.26 49.3808C236.26 49.6197 236.101 49.8586 235.463 49.8586C233.79 49.8586 231.718 49.6994 230.523 49.6994C229.328 49.6994 227.495 49.8586 225.981 49.8586C225.583 49.8586 225.184 49.779 225.184 49.3808C225.184 49.1418 225.344 49.0622 225.901 48.9825C226.3 48.9825 226.539 48.9825 227.017 48.9029C228.133 48.664 228.611 48.0268 229.009 45.3188L232.356 23.4162C232.595 22.2215 232.834 21.8232 233.153 21.8232C233.471 21.8232 233.87 22.2215 234.667 23.4162L245.583 40.0622L255.942 23.2569C256.659 22.2215 256.978 21.9029 257.297 21.9029C257.775 21.9029 257.934 22.3808 258.093 23.4162L260.962 45.2392Z" fill="white"/>
<path d="M274.508 43.0084C274.269 43.0084 274.11 43.2474 274.11 43.4067L273.233 45.5571C272.914 46.2739 272.675 46.9907 272.596 47.7872C272.596 48.9819 274.189 49.0615 275.145 49.1412C275.703 49.2208 275.783 49.3801 275.783 49.5394C275.783 49.858 275.544 50.0173 275.066 50.0173C273.233 50.0173 271.958 49.858 269.807 49.858C269.408 49.858 266.938 50.0173 265.105 50.0173C264.548 50.0173 264.309 49.858 264.309 49.619C264.309 49.3801 264.548 49.2208 265.026 49.2208C266.858 48.9819 267.815 48.504 268.851 46.035L278.891 24.5305C279.767 22.619 280.166 22.0615 280.644 22.0615C281.122 22.0615 281.44 22.619 282.158 24.0527C283.034 26.1235 289.568 39.7429 292.118 45.3182C293.393 48.0261 294.11 48.9819 295.544 49.1412C295.863 49.1412 296.182 49.2208 296.341 49.2208C296.819 49.2208 297.058 49.4598 297.058 49.619C297.058 49.7783 296.74 50.0173 296.261 50.0173C292.038 49.9376 287.656 49.9376 285.425 49.858C284.946 49.858 284.628 49.6987 284.628 49.4598C284.628 49.2208 284.867 49.1412 285.106 49.0615C285.345 48.9819 285.823 48.9022 285.584 48.4244L283.273 43.2474C283.193 43.0881 283.114 43.0084 282.954 43.0084H274.508ZM281.998 39.6633C282.237 39.6633 282.237 39.5836 282.237 39.504L278.97 31.9376C278.811 31.6987 278.811 31.7783 278.731 31.9376L275.624 39.4244C275.544 39.5836 275.624 39.5836 275.703 39.5836L281.998 39.6633Z" fill="white"/>
<path d="M311.082 39.3448C311.082 42.1324 311.082 45.3183 311.242 46.9112C311.322 47.867 311.64 48.7431 312.756 48.9023C313.234 48.982 313.792 49.0616 314.27 49.0616C314.907 49.1413 315.067 49.3006 315.067 49.5395C315.067 49.7785 314.828 49.8581 314.19 49.8581C311.561 49.8581 307.656 49.6988 307.098 49.6988C306.541 49.6988 302.477 49.8581 301.361 49.8581C300.724 49.8581 300.485 49.7785 300.485 49.4599C300.485 49.1413 300.803 49.0616 301.281 48.982C301.76 48.9023 302.078 48.982 302.477 48.8227C303.274 48.6634 303.592 47.9466 303.672 46.9112C303.831 45.3183 303.831 42.7696 303.831 39.2652V25.3271C302.397 25.3271 299.927 25.2475 298.094 25.4068C296.022 25.5661 295.305 26.0439 294.907 27.4776C294.827 27.7165 294.747 28.0351 294.588 28.274C294.508 28.513 294.349 28.8315 294.11 28.8315C293.871 28.8315 293.712 28.513 293.791 28.0351C294.03 26.2829 294.349 24.3714 294.588 22.6988C294.668 22.1413 294.907 21.9023 295.066 21.9023C295.226 21.9023 295.544 22.0616 296.182 22.1413C297.616 22.3006 299.05 22.4599 300.485 22.4599H317.298C318.095 22.4599 318.812 22.3802 319.529 22.3006C320.246 22.1413 320.565 22.0616 320.724 22.0616C321.123 22.0616 321.123 22.3006 321.123 23.336C321.123 23.7342 320.883 27.5572 320.804 28.4333C320.724 28.9908 320.565 29.2298 320.326 29.2298C320.087 29.2298 319.927 28.9908 319.927 28.5926C319.927 28.1944 319.927 27.9554 319.927 27.7165C319.768 26.6015 319.369 25.805 317.377 25.5661C316.023 25.4864 314.031 25.3271 311.003 25.3271L311.082 39.3448Z" fill="white"/>
<path d="M336.183 40.46C336.262 39.106 335.864 37.752 335.067 36.637C333.394 33.6104 329.968 28.1148 328.693 26.3626C327.099 23.9732 326.78 23.7343 325.505 23.4954C325.346 23.4157 324.947 23.3361 324.708 23.3361C324.31 23.2564 324.151 23.0971 324.151 22.8582C324.151 22.6193 324.469 22.46 324.947 22.46C326.7 22.46 329.489 22.6193 331.003 22.6193C331.561 22.6193 334.27 22.46 336.741 22.46C337.219 22.46 337.458 22.6193 337.458 22.8582C337.458 23.0971 337.298 23.2564 336.82 23.3361C335.705 23.4954 335.466 23.7343 335.466 24.0529C335.545 24.4511 335.625 24.7697 335.864 25.0883C336.422 26.1237 340.964 34.0086 341.601 35.044C344.39 30.106 345.745 27.4777 346.462 25.9644C346.781 25.4865 347.02 24.8493 347.099 24.2918C347.099 23.8139 346.94 23.4954 345.665 23.3361C345.346 23.3361 345.107 23.1768 345.107 22.8582C345.107 22.5396 345.346 22.46 345.904 22.46C347.498 22.46 348.773 22.6193 350.366 22.6193C350.844 22.6193 354.032 22.46 354.749 22.46C355.147 22.46 355.466 22.5396 355.466 22.7785C355.466 23.0175 355.227 23.2564 354.749 23.2564C354.271 23.2564 353.793 23.4157 353.315 23.4954C352.438 23.8139 351.641 24.4511 351.163 25.3272C349.888 26.7608 344.47 35.8405 343.992 37.3538C343.593 38.4688 343.434 39.5839 343.434 40.6989V43.2476C343.434 43.8051 343.434 45.0794 343.514 46.6724C343.593 47.5485 343.673 48.5839 345.107 48.8228C345.824 48.9821 346.542 49.0617 347.259 49.0617C347.657 49.0617 347.896 49.3007 347.896 49.46C347.896 49.6193 347.737 49.8582 347.179 49.8582C344.39 49.8582 340.964 49.6989 339.689 49.6989C338.573 49.6989 335.386 49.8582 333.633 49.8582C333.075 49.8582 332.836 49.6989 332.836 49.3803C332.836 49.221 332.995 48.9821 333.553 48.9821C333.952 48.9821 334.43 48.9024 334.828 48.8228C335.864 48.5839 336.103 47.867 336.183 46.8316C336.342 45.2387 336.342 43.7255 336.342 43.1679L336.183 40.46Z" fill="white"/>
<path d="M127.015 83.6281C126.776 83.6281 126.616 83.8671 126.616 84.0264L125.74 86.1768C125.421 86.8936 125.182 87.6901 125.102 88.4069C125.102 89.6016 126.696 89.6812 127.652 89.7609C128.21 89.7609 128.369 89.9998 128.369 90.1591C128.369 90.4777 128.13 90.637 127.652 90.637C125.819 90.637 124.544 90.4777 122.393 90.4777C121.995 90.4777 119.524 90.637 117.692 90.637C117.134 90.637 116.975 90.4777 116.975 90.2387C116.975 89.9998 117.214 89.8405 117.612 89.8405C119.445 89.6016 120.401 89.1237 121.517 86.6547L131.557 65.1503C132.433 63.2387 132.832 62.6812 133.31 62.6812C133.788 62.6812 134.027 63.2387 134.744 64.6724C135.7 66.7432 142.154 80.3626 144.704 85.9379C145.979 88.6458 146.696 89.6016 148.131 89.7609C148.449 89.7609 148.768 89.8405 149.007 89.8405C149.485 89.8405 149.724 90.0795 149.724 90.2387C149.724 90.398 149.406 90.637 149.007 90.637C144.784 90.637 140.401 90.5573 138.17 90.4777C137.692 90.4777 137.453 90.3184 137.453 90.0795C137.453 89.8405 137.692 89.7609 137.931 89.6812C138.17 89.6016 138.648 89.5219 138.409 89.0441L136.099 83.8671C136.019 83.7078 135.939 83.6281 135.78 83.6281H127.015ZM134.505 80.283C134.744 80.283 134.744 80.2033 134.744 80.1237L131.397 72.637C131.318 72.398 131.318 72.4777 131.158 72.7166L128.051 80.2033C127.971 80.3626 128.051 80.3626 128.21 80.3626H134.505V80.283ZM141.198 56.3892C141.358 56.9467 141.278 57.106 140.959 57.106C140.162 57.1856 139.286 57.3449 138.489 57.5839C136.338 58.221 134.266 59.0175 132.274 60.0529C131.955 60.2122 131.636 60.3715 131.318 60.4511C131.079 60.3715 130.919 60.2918 130.919 60.1326C130.999 59.814 131.079 59.575 131.318 59.3361C132.991 57.3449 134.903 55.4334 136.895 53.6812C137.214 53.283 137.692 52.9644 138.17 52.8848C138.409 52.8848 138.648 52.9644 139.047 53.3626C140.083 54.2387 140.72 55.2741 141.198 56.3892Z" fill="white"/>
<path d="M159.525 81.0794C159.605 79.7254 159.207 78.3714 158.41 77.2563C156.736 74.3094 153.31 68.7342 152.035 66.982C150.521 64.6723 150.123 64.3537 148.848 64.1147C148.688 64.0351 148.29 63.9555 148.051 63.9555C147.653 63.8758 147.493 63.7165 147.493 63.4776C147.493 63.2386 147.812 63.0793 148.21 63.0793C149.963 63.0793 152.752 63.2386 154.266 63.2386C154.824 63.2386 157.533 63.0793 160.003 63.0793C160.481 63.0793 160.721 63.2386 160.721 63.4776C160.721 63.7165 160.561 63.8758 160.083 63.9555C158.968 64.1147 158.728 64.3537 158.728 64.6723C158.808 65.0705 158.888 65.3891 159.127 65.7077C159.685 66.7431 164.227 74.628 164.864 75.6634C167.653 70.7254 169.008 68.097 169.725 66.5838C170.043 66.1059 170.283 65.4687 170.362 64.9112C170.362 64.4333 170.203 64.1147 168.928 63.9555C168.609 63.9555 168.37 63.7962 168.37 63.4776C168.37 63.159 168.609 63.0793 169.167 63.0793C170.761 63.0793 172.036 63.2386 173.629 63.2386C174.107 63.2386 177.295 63.0793 178.012 63.0793C178.41 63.0793 178.729 63.159 178.729 63.3979C178.729 63.6369 178.49 63.8758 178.012 63.8758C177.534 63.8758 177.056 64.0351 176.577 64.1147C175.701 64.4333 174.904 65.0705 174.426 65.9466C173.151 67.3802 167.733 76.4599 167.255 77.9732C166.856 79.0882 166.697 80.2032 166.697 81.3183V83.867C166.697 84.4245 166.697 85.6988 166.776 87.2917C166.856 88.1678 166.856 89.2032 168.29 89.4422C169.008 89.6015 169.725 89.6811 170.442 89.6811C170.84 89.6811 171.079 89.9201 171.079 90.0793C171.079 90.2386 171 90.4776 170.442 90.4776C167.653 90.4776 164.227 90.3183 162.952 90.3183C161.836 90.3183 158.649 90.4776 156.896 90.4776C156.338 90.4776 156.179 90.3183 156.179 89.9997C156.179 89.8404 156.338 89.6015 156.896 89.6015C157.294 89.6015 157.772 89.5218 158.171 89.4422C159.207 89.2032 159.446 88.4864 159.525 87.451C159.685 85.9378 159.685 84.3448 159.685 83.7873L159.525 81.0794ZM172.434 56.5484C172.593 57.1059 172.514 57.2652 172.195 57.2652C171.398 57.3448 170.522 57.5041 169.725 57.7431C167.573 58.3802 165.502 59.1767 163.509 60.2121C163.191 60.3714 162.872 60.5307 162.553 60.6103C162.394 60.6103 162.235 60.451 162.235 60.2917C162.314 59.9731 162.394 59.7342 162.633 59.4953C164.386 57.5041 166.219 55.5926 168.211 53.8404C168.529 53.4422 169.008 53.1236 169.565 53.0439C169.804 53.0439 169.964 53.1236 170.442 53.5218C171.318 54.3979 171.956 55.4333 172.434 56.5484Z" fill="white"/>
<path d="M184.705 73.593C184.705 67.5399 184.625 66.9028 184.625 65.7081C184.705 64.9116 184.068 64.1152 183.271 64.0355C182.872 63.9559 182.554 63.9559 182.155 63.8762C181.598 63.8762 181.518 63.6373 181.518 63.3983C181.518 63.1594 181.757 63.0001 182.315 63.0001C184.546 63.0001 186.379 63.1594 187.972 63.1594H198.889C199.606 63.1594 200.323 63.0798 201.04 63.0001C201.2 62.9205 201.439 62.9205 201.598 62.8408C201.837 62.8408 201.917 63.0001 201.837 63.2391C201.678 63.7966 201.598 64.4337 201.518 64.9913C201.439 65.947 201.439 66.6638 201.279 68.8939C201.279 69.2125 201.12 69.4514 200.881 69.4514C200.642 69.4514 200.482 69.2921 200.482 68.9736C200.403 68.4957 200.403 68.1771 200.243 67.6196C200.004 66.8231 199.526 66.2656 197.773 66.1063C196.419 66.0267 193.311 65.947 192.116 65.947C191.877 65.947 191.797 66.1063 191.797 66.3452V74.0709C191.797 74.3099 191.797 74.3895 192.116 74.3895C193.231 74.3895 195.861 74.3895 197.295 74.3895C199.367 74.3099 199.845 74.1506 200.323 73.4337C200.482 73.1152 200.642 72.9559 200.801 72.9559C200.961 72.9559 201.12 73.1948 201.12 73.4337C201.12 73.832 200.881 75.4249 200.801 76.7789C200.721 77.5753 200.721 79.4868 200.721 79.9647C200.721 80.4426 200.562 80.6019 200.323 80.6019C200.084 80.6019 199.925 80.4426 199.925 80.0444C199.845 79.8054 199.845 79.5665 199.845 79.3276C199.606 78.2125 199.207 77.4957 197.215 77.416C196.02 77.3364 193.152 77.2568 192.036 77.2568C191.797 77.2568 191.797 77.3364 191.797 77.5753V80.2037C191.797 81.3983 191.717 83.1506 191.797 84.5842C191.797 87.1329 192.275 87.77 196.578 87.77C197.773 87.8497 198.968 87.6904 200.084 87.3718C201.12 86.9736 201.518 86.0975 201.917 84.4249C201.996 84.0267 202.156 83.7877 202.395 83.7877C202.634 83.7877 202.714 84.1063 202.714 84.5842C202.634 86.3364 202.474 88.0886 202.156 89.8408C201.837 90.7966 201.598 90.7966 200.164 90.7966C194.506 90.7966 191.877 90.5576 187.893 90.5576C186.139 90.5576 184.307 90.7169 182.155 90.7169C181.438 90.7169 181.279 90.478 181.279 90.2391C181.279 90.0001 181.438 89.8408 182.076 89.8408C182.474 89.8408 182.793 89.7612 183.191 89.6815C184.386 89.4426 184.546 88.0886 184.625 85.4603C184.625 84.1063 184.705 82.0355 184.705 80.0444V73.593Z" fill="white"/>
<path d="M210.283 64.4334C210.283 63.2387 210.443 62.6016 211.001 62.6016C211.24 62.6016 211.399 62.6016 212.435 63.398C214.268 64.8317 220.005 69.7697 224.706 73.9113C228.85 77.575 230.842 79.2476 231.957 80.2033L231.718 67.3803C231.639 65.3892 231.399 64.4334 229.726 64.1148C229.248 64.0352 228.69 63.9555 228.212 63.9555C227.734 63.9555 227.495 63.7166 227.495 63.5573C227.495 63.2387 227.814 63.1591 228.212 63.1591C229.567 63.1591 232.196 63.3184 233.87 63.3184C234.826 63.3184 236.738 63.1591 238.252 63.1591C238.89 63.1591 239.049 63.3184 239.049 63.5573C239.049 63.7963 238.969 63.9555 238.412 64.0352C238.093 64.0352 237.854 64.1148 237.535 64.1148C236.26 64.2741 235.862 64.8317 235.702 67.1414C235.384 73.9909 235.224 81.398 235.224 88.7255C235.224 90.7963 234.985 91.1945 234.427 91.1945C233.87 91.1945 232.515 90.2387 229.487 87.8494C226.858 85.6989 223.909 83.0706 222.077 81.4777C220.085 79.6458 216.818 76.9378 213.63 73.9909L214.029 85.7785C214.108 88.3272 214.188 89.3626 215.304 89.6016C215.941 89.7609 216.578 89.8405 217.216 89.8405C217.853 89.9201 218.013 90.0794 218.013 90.2387C218.013 90.398 217.774 90.637 217.057 90.637C216.021 90.637 214.905 90.5573 212.276 90.4777C211.24 90.4777 208.132 90.637 206.857 90.637C206.22 90.637 206.06 90.4777 206.06 90.2387C206.06 89.9998 206.22 89.8405 206.698 89.8405C207.176 89.8405 207.256 89.7609 207.734 89.7609C209.327 89.5219 209.646 88.7255 209.726 85.3803C210.124 77.7343 210.124 69.2918 210.283 64.4334Z" fill="white"/>
<path d="M246.938 73.5929C246.938 68.2566 246.938 67.5398 246.858 66.3451C246.778 65.3097 246.699 64.1947 245.025 64.0354L243.83 63.8761C243.272 63.7965 243.193 63.5575 243.193 63.3982C243.193 63.2389 243.272 63 243.989 63C244.707 63 248.372 63.1593 250.205 63.1593C251.48 63.1593 252.994 63.0796 256.34 63.0796C263.193 63.0796 267.894 64.115 271.161 67.3009C273.552 69.7699 274.906 73.115 274.747 76.5398C274.747 80.2832 273.233 83.8673 270.524 86.4956C268.612 88.3274 265.424 90.7965 257.615 90.7965C255.623 90.7965 251.4 90.3982 249.966 90.3982C248.213 90.3982 246.141 90.5575 244.388 90.5575C243.75 90.5575 243.591 90.3186 243.591 90.1593C243.591 90 243.83 89.7611 244.228 89.7611C244.627 89.7611 244.946 89.6814 245.344 89.6018C247.177 89.4425 246.938 86.8142 246.938 79.9646V73.5929ZM254.029 77.7345C254.029 81.5575 254.109 83.8673 254.109 84.5841C254.189 86.2566 254.348 86.7345 254.747 87.2124C255.464 88.0089 257.137 88.4071 258.412 88.4071C260.803 88.4071 262.795 88.0885 264.787 86.0177C266.619 84.1859 267.098 80.7611 267.098 77.8142C267.177 74.8673 266.301 71.9204 264.548 69.531C262.635 66.9027 259.528 65.3894 256.34 65.469C255.703 65.3894 254.986 65.5487 254.348 65.7876C254.03 66.1062 253.95 66.2655 253.95 73.0354L254.029 77.7345Z" fill="white"/>
<path d="M283.194 73.593C283.194 67.5399 283.114 66.9028 283.034 65.7081C283.114 64.9116 282.476 64.1152 281.68 64.0355C281.281 63.9559 280.962 63.9559 280.564 63.8762C280.006 63.8762 279.927 63.6373 279.927 63.3983C279.927 63.1594 280.166 63.0001 280.723 63.0001C283.034 63.0001 284.787 63.1594 286.381 63.1594H297.297C298.015 63.1594 298.732 63.0798 299.449 63.0001C299.608 62.9205 299.847 62.9205 300.007 62.8408C300.246 62.8408 300.325 63.0001 300.246 63.2391C300.086 63.7966 300.007 64.4337 299.927 64.9913C299.927 65.947 299.847 66.6638 299.688 68.8939C299.688 69.2125 299.529 69.4514 299.29 69.4514C299.05 69.4514 298.891 69.2921 298.891 68.9736C298.811 68.4957 298.811 68.1771 298.652 67.6196C298.413 66.8231 298.015 66.2656 296.182 66.1063C294.827 66.0267 291.72 65.947 290.524 65.947C290.285 65.947 290.206 66.1063 290.206 66.3452V74.0709C290.206 74.3099 290.285 74.3895 290.524 74.3895C291.64 74.3895 294.269 74.3895 295.704 74.3895C297.776 74.3099 298.254 74.1506 298.732 73.4337C298.891 73.1152 299.05 72.9559 299.21 72.9559C299.369 72.9559 299.529 73.1948 299.529 73.4337C299.529 73.832 299.29 75.4249 299.21 76.7789C299.21 77.5753 299.13 79.4868 299.13 79.9647C299.13 80.4426 299.05 80.6019 298.732 80.6019C298.413 80.6019 298.333 80.4426 298.333 80.0444C298.333 79.8054 298.333 79.5665 298.254 79.3276C298.015 78.2125 297.616 77.4957 295.624 77.416C294.429 77.3364 291.56 77.2568 290.445 77.2568C290.206 77.2568 290.206 77.3364 290.206 77.5753V80.2037C290.206 81.3983 290.206 83.1506 290.206 84.5842C290.285 87.1329 290.684 87.77 294.987 87.77C296.182 87.8497 297.377 87.6904 298.493 87.3718C299.529 86.9736 299.927 86.0975 300.325 84.4249C300.405 84.0267 300.564 83.7877 300.803 83.7877C301.043 83.7877 301.122 84.1063 301.122 84.5842C301.043 86.3364 300.883 88.0886 300.564 89.8408C300.246 90.7966 300.007 90.7966 298.572 90.7966C292.915 90.7966 290.285 90.5576 286.301 90.5576C284.548 90.5576 282.715 90.7169 280.564 90.7169C279.847 90.7169 279.688 90.478 279.688 90.2391C279.688 90.0001 279.847 89.8408 280.484 89.8408C280.883 89.8408 281.201 89.7612 281.6 89.6815C282.795 89.4426 282.955 88.0886 283.034 85.4603C283.034 84.1063 283.114 82.0355 283.114 80.0444L283.194 73.593Z" fill="white"/>
<path d="M310.604 73.5934C310.604 67.9385 310.604 67.381 310.445 66.1863C310.365 64.5934 309.648 64.1155 308.851 64.0358C308.214 63.8765 307.815 63.8765 307.576 63.8765C307.098 63.8765 306.939 63.6376 306.939 63.4783C306.939 63.319 307.098 63.0801 307.736 63.0801C309.25 63.0801 313.075 63.2394 313.553 63.2394C314.19 63.2394 318.095 63.0801 320.007 63.0801C323.832 63.0801 326.382 63.4783 327.896 64.2748C330.127 65.3102 331.481 67.5403 331.481 69.9296C331.481 72.7969 329.569 75.1066 326.461 77.0978C328.533 80.4429 330.924 83.6288 333.394 86.6553C335.306 88.8854 336.183 89.4429 337.378 89.6022C337.697 89.6819 338.015 89.6818 338.414 89.7615C338.812 89.7615 338.972 90.0004 338.972 90.2394C338.972 90.558 338.573 90.6376 338.175 90.6376H334.908C330.525 90.6376 328.772 90.2394 327.338 89.3633C326.222 88.6465 325.027 87.2128 323.752 84.9827C321.999 82.0358 321.362 80.8411 320.644 79.7261C320.565 79.5668 320.405 79.4872 320.246 79.4872H317.696C317.537 79.4872 317.377 79.5668 317.377 79.7261C317.377 79.7261 317.377 79.7261 317.377 79.8057V82.0358C317.377 84.7438 317.457 86.496 317.537 87.6111C317.616 88.5668 317.856 89.2836 318.971 89.6022C319.529 89.7615 320.087 89.8411 320.724 89.8411C321.362 89.8411 321.362 90.0801 321.362 90.319C321.362 90.558 321.202 90.7173 320.644 90.7173C318.095 90.7173 313.632 90.558 313.393 90.558C312.995 90.558 309.011 90.7173 307.815 90.7173C307.178 90.7173 307.098 90.4783 307.098 90.2394C307.098 90.0004 307.337 89.8411 307.736 89.8411C308.134 89.8411 308.612 89.7615 309.011 89.6819C309.808 89.5226 310.126 88.8854 310.206 87.6111C310.365 86.0978 310.445 83.6288 310.445 80.1243L310.604 73.5934ZM317.537 75.9031C317.537 76.142 317.696 76.3013 317.856 76.4606C318.812 76.8588 319.927 77.0181 320.963 76.9385C321.76 76.9385 322.557 76.7792 323.274 76.381C323.911 75.9031 324.549 74.3898 324.549 72.0801C324.549 66.9031 321.043 65.7084 319.13 65.7084C318.652 65.7084 318.174 65.7084 317.776 65.8677C317.616 65.9473 317.537 66.027 317.537 66.2659V75.9031Z" fill="white"/>
<path d="M344.31 73.5934C344.31 67.9385 344.31 66.9827 344.151 65.788C344.071 64.8323 343.832 64.1951 342.876 64.0358C342.478 63.9562 342.079 63.8765 341.681 63.8765C341.203 63.8765 340.964 63.7172 340.964 63.4783C340.964 63.2394 341.123 63.0801 341.76 63.0801C343.195 63.0801 347.259 63.2394 347.418 63.2394C347.577 63.2394 352.358 63.0801 353.793 63.0801C354.43 63.0801 354.589 63.2394 354.589 63.4783C354.589 63.7172 354.271 63.8765 353.793 63.8765C353.474 63.8765 353.235 63.9562 352.996 64.0358C351.96 64.2748 351.641 64.5934 351.482 65.8677C351.322 67.142 351.322 67.9385 351.322 73.5934V79.965C351.322 82.7527 351.322 86.1774 351.561 87.6907C351.482 88.5668 352.119 89.3633 353.075 89.5226C353.554 89.6022 354.111 89.6819 354.669 89.6819C355.307 89.6819 355.466 89.9208 355.466 90.1597C355.466 90.3987 355.307 90.558 354.669 90.558C352.04 90.558 347.737 90.3987 347.498 90.3987C347.259 90.3987 343.035 90.558 341.84 90.558C341.203 90.558 340.964 90.3987 340.964 90.1597C340.964 89.9208 341.203 89.7615 341.601 89.7615C342 89.7615 342.318 89.6819 342.796 89.6022C343.593 89.4429 343.912 88.6465 343.992 87.6111C344.231 85.0624 344.31 82.5137 344.231 79.965L344.31 73.5934Z" fill="white"/>
<path d="M0.717245 5.33585L19.7615 43.6456C22.6301 50.1766 25.2596 53.442 29.0047 53.9996L16.5742 17.681C13.9446 10.035 16.3351 7.48629 21.3552 7.48629H149.804C152.513 6.13231 155.302 4.85798 158.171 3.82258C161.518 2.62789 165.98 1.2739 170.761 -0.0800781H2.789C1.03598 -0.000432111 -1.11546 1.99072 0.717245 5.33585Z" fill="#D4A351"/>
<path d="M76.2566 99.0001H73.3083V106.487H74.663V103.859H76.1769C77.4519 103.859 78.5674 102.903 78.5674 101.549C78.5674 101.469 78.5674 101.389 78.5674 101.31C78.6471 100.036 77.6909 98.9205 76.416 98.8408C76.416 99.0001 76.3363 99.0001 76.2566 99.0001ZM76.0176 102.743H74.7426V100.195H76.0176C76.655 100.115 77.2128 100.673 77.2925 101.31C77.2925 101.389 77.2925 101.469 77.2925 101.469C77.3722 102.106 76.8144 102.664 76.1769 102.743C76.1769 102.743 76.0973 102.743 76.0176 102.743Z" fill="#D4A351"/>
<path d="M82.3126 103.381H84.8625V102.186H82.3126V100.195H85.4203V99H80.958V106.566H85.5796V105.372H82.3126V103.381Z" fill="#D4A351"/>
<path d="M91.3965 105.451C90.0418 105.451 88.8466 104.336 88.8466 102.982C88.8466 102.903 88.8466 102.823 88.8466 102.823C88.7669 101.469 89.7231 100.354 90.998 100.274C91.0777 100.274 91.2371 100.274 91.3168 100.274C92.0339 100.274 92.8308 100.593 93.3885 101.071L94.026 100.035C93.2292 99.3186 92.273 99 91.2371 99C89.0856 99.0796 87.4123 100.911 87.492 103.062C87.5717 105.053 89.1653 106.646 91.2371 106.805C92.3527 106.805 93.3885 106.407 94.1854 105.611L93.4682 104.655C92.9901 105.053 92.1933 105.372 91.3965 105.451Z" fill="#D4A351"/>
<path d="M96.5759 106.566H97.9305V100.195H101.277V106.566H102.632V99H96.5759V106.566Z" fill="#D4A351"/>
<path d="M108.449 102.424C108.289 102.902 108.13 103.38 108.13 103.38C108.13 103.38 107.97 102.902 107.731 102.345L106.138 98.9996H104.624L107.572 104.814C107.413 105.212 107.174 105.451 106.775 105.451C106.456 105.451 106.217 105.292 105.978 105.053L105.341 106.088C105.739 106.407 106.297 106.566 106.855 106.566C107.97 106.566 108.449 105.69 108.767 104.893L111.078 98.9199H109.644L108.449 102.424Z" fill="#D4A351"/>
<path d="M115.939 101.947H114.425V100.195H117.692V99H113.07V106.487H115.939C117.214 106.566 118.329 105.611 118.409 104.336C118.489 103.062 117.533 101.947 116.258 101.867C116.178 101.947 116.098 101.947 115.939 101.947ZM115.78 105.372H114.505V103.142H115.78C116.417 103.062 116.895 103.54 116.975 104.097C116.975 104.177 116.975 104.177 116.975 104.257C116.975 104.814 116.576 105.372 116.019 105.372C115.859 105.372 115.78 105.372 115.78 105.372Z" fill="#D4A351"/>
<path d="M121.517 101.071C121.517 104.018 121.038 105.213 119.923 105.372V106.646C121.995 106.567 122.871 104.735 122.871 101.071V100.195H124.863V106.567H126.218V99.0801H121.596L121.517 101.071Z" fill="#D4A351"/>
<path d="M130.999 103.381C130.76 103.859 130.361 104.576 130.361 104.576C130.361 104.576 130.441 103.859 130.441 103.381V99.0801H129.086V106.567H130.441L133.31 102.266C133.628 101.788 133.947 101.071 133.947 101.071C133.947 101.071 133.867 101.788 133.867 102.266V106.567H135.222V99.0801H133.867L130.999 103.381Z" fill="#D4A351"/>
<path d="M141.597 102.584L143.748 99H142.234L140.481 102.106H139.525V99H138.17V106.566H139.525V103.301H140.481L142.314 106.566H143.828L141.597 102.664V102.584Z" fill="#D4A351"/>
<path d="M147.732 99L145.103 106.487H146.537L147.175 104.575H149.804L150.442 106.487H151.876L149.246 99H147.732ZM147.493 103.54L148.21 101.549C148.37 101.15 148.529 100.354 148.529 100.354C148.529 100.354 148.689 101.071 148.848 101.549L149.485 103.54H147.493Z" fill="#D4A351"/>
<path d="M161.119 105.451C159.764 105.451 158.569 104.415 158.569 102.982C158.569 102.902 158.569 102.823 158.569 102.743C158.49 101.389 159.446 100.274 160.721 100.194C160.8 100.194 160.96 100.194 161.039 100.194C161.757 100.194 162.553 100.513 163.111 100.991L163.749 99.9553C162.952 99.2385 161.996 98.9199 160.96 98.9199C158.808 98.9996 157.135 100.831 157.215 102.982C157.294 104.973 158.888 106.566 160.96 106.725C162.075 106.725 163.111 106.327 163.908 105.531L163.191 104.575C162.713 105.053 161.916 105.371 161.119 105.451Z" fill="#D4A351"/>
<path d="M168.131 99L165.502 106.487H166.936L167.573 104.575H170.203L170.84 106.487H172.275L169.645 99H168.131ZM167.892 103.54L168.609 101.549C168.769 101.15 168.928 100.354 168.928 100.354C168.928 100.354 169.087 101.071 169.247 101.549L169.884 103.54H167.892Z" fill="#D4A351"/>
<path d="M177.135 99.0001H174.267V106.487H175.621V103.859H177.135C178.41 103.859 179.526 102.903 179.526 101.549C179.526 101.469 179.526 101.389 179.526 101.31C179.606 100.036 178.649 98.9205 177.375 98.8408C177.295 99.0001 177.215 99.0001 177.135 99.0001ZM176.896 102.743H175.621V100.195H176.896C177.534 100.115 178.092 100.673 178.171 101.31C178.171 101.389 178.171 101.469 178.171 101.469C178.251 102.106 177.773 102.664 177.135 102.743C177.056 102.743 176.976 102.743 176.896 102.743Z" fill="#D4A351"/>
<path d="M183.191 99L180.562 106.487H181.996L182.634 104.575H185.263L185.901 106.487H187.335L184.705 99H183.191ZM182.952 103.54L183.669 101.549C183.829 101.15 183.988 100.354 183.988 100.354C183.988 100.354 184.148 101.071 184.307 101.549L184.944 103.54H182.952Z" fill="#D4A351"/>
<path d="M190.761 97.0889V97.2482C190.921 98.2039 191.877 98.8411 192.833 98.6818C193.55 98.5225 194.108 97.965 194.267 97.2482V97.0889H193.231V97.2482C193.231 97.6464 192.913 97.8853 192.594 97.965H192.514C192.116 97.965 191.797 97.726 191.797 97.3278C191.797 97.3278 191.797 97.3278 191.797 97.2482V97.0889H190.761Z" fill="#D4A351"/>
<path d="M191.319 103.381C191.08 103.859 190.681 104.576 190.681 104.576C190.681 104.576 190.761 103.859 190.761 103.381V99.0801H189.406V106.567H190.761L193.63 102.266C193.948 101.788 194.267 101.071 194.267 101.071C194.267 101.071 194.187 101.788 194.187 102.266V106.567H195.542V99.0801H194.187L191.319 103.381Z" fill="#D4A351"/>
<path d="M201.2 101.708H199.765V99.0801H198.411V106.646H201.2C202.554 106.646 203.67 105.531 203.67 104.177C203.67 102.744 202.554 101.708 201.2 101.708ZM200.96 105.372H199.765V102.823H200.96C201.598 102.823 202.156 103.301 202.156 103.938C202.156 104.018 202.156 104.098 202.156 104.098C202.235 104.735 201.837 105.292 201.2 105.372C201.12 105.372 201.04 105.372 200.96 105.372Z" fill="#D4A351"/>
<path d="M205.821 99H204.467V106.487H205.821V99Z" fill="#D4A351"/>
<path d="M214.188 101.708C213.232 101.708 212.435 102.504 212.435 103.46C212.435 104.416 213.232 105.212 214.188 105.212C215.144 105.212 215.941 104.416 215.941 103.46C215.941 102.504 215.144 101.708 214.188 101.708Z" fill="#D4A351"/>
<path d="M228.212 99H223.511V100.673C223.591 102.345 223.192 103.938 222.395 105.372H221.599V108H222.874V106.487H227.734V108H228.929V105.372H228.133L228.212 99ZM226.778 105.372H223.75C224.467 103.938 224.786 102.345 224.706 100.752V100.195H226.698V105.372H226.778Z" fill="#D4A351"/>
<path d="M235.463 102.585C236.021 102.266 236.42 101.629 236.34 100.992C236.34 99.7172 235.384 99.0801 234.029 99.0801H231.32V106.646H234.029C235.384 106.646 236.659 105.93 236.659 104.496C236.818 103.62 236.26 102.823 235.463 102.585ZM232.754 100.195H234.029C234.507 100.115 234.985 100.434 234.985 100.912C234.985 100.992 234.985 101.071 234.985 101.071C234.985 101.549 234.667 102.027 234.188 102.027H234.109H232.754V100.195ZM234.188 105.372H232.754V103.222H234.268C234.906 103.142 235.384 103.62 235.463 104.177C235.543 104.815 235.065 105.292 234.507 105.372C234.427 105.372 234.348 105.372 234.188 105.372Z" fill="#D4A351"/>
<path d="M242.635 98.9207C240.563 98.8411 238.81 100.514 238.73 102.664C238.73 102.744 238.73 102.744 238.73 102.823C238.651 104.974 240.324 106.806 242.475 106.885C244.627 106.965 246.46 105.292 246.539 103.142C246.539 103.062 246.539 102.903 246.539 102.823C246.539 100.753 244.866 99.0003 242.794 99.0003C242.714 98.9207 242.635 98.9207 242.635 98.9207ZM242.635 105.452C241.2 105.372 240.085 104.257 240.165 102.823C240.165 102.823 240.165 102.823 240.165 102.744C240.085 101.39 241.121 100.195 242.475 100.115C243.83 100.036 245.025 101.071 245.105 102.425C245.105 102.505 245.105 102.584 245.105 102.744C245.185 104.177 244.069 105.372 242.635 105.452Z" fill="#D4A351"/>
<path d="M251.878 99.0001H249.01V106.487H250.364V103.859H251.878C253.153 103.859 254.269 102.903 254.269 101.549C254.269 101.469 254.269 101.389 254.269 101.31C254.348 100.036 253.392 98.9205 252.117 98.8408C252.037 99.0001 251.958 99.0001 251.878 99.0001ZM251.639 102.743H250.364V100.195H251.639C252.277 100.115 252.834 100.673 252.914 101.31C252.914 101.389 252.914 101.469 252.914 101.469C252.994 102.106 252.436 102.664 251.798 102.743C251.719 102.743 251.639 102.743 251.639 102.743Z" fill="#D4A351"/>
<path d="M257.854 103.381H260.404V102.186H257.854V100.195H261.042V99H256.5V106.566H261.201V105.372H257.854V103.381Z" fill="#D4A351"/>
<path d="M269.568 99H268.213V105.372H264.946V99H263.592V106.566H269.249V108H270.524V105.372H269.568V99Z" fill="#D4A351"/>
<path d="M279.448 99.0001H276.58V106.487H277.934V103.859H279.448C280.723 103.859 281.839 102.903 281.839 101.549C281.839 101.469 281.839 101.389 281.839 101.31C281.919 100.036 280.962 98.9205 279.687 98.8408C279.608 99.0001 279.528 99.0001 279.448 99.0001ZM279.209 102.743H277.934V100.195H279.209C279.847 100.115 280.405 100.673 280.484 101.31C280.484 101.389 280.484 101.469 280.484 101.469C280.564 102.106 280.006 102.664 279.369 102.743C279.289 102.743 279.289 102.743 279.209 102.743Z" fill="#D4A351"/>
<path d="M285.504 103.381H287.975V102.186H285.504V100.195H288.612V99H284.07V106.566H288.771V105.372H285.504V103.381Z" fill="#D4A351"/>
<path d="M294.588 105.451C293.234 105.451 292.038 104.336 292.038 102.982C292.038 102.903 292.038 102.823 292.038 102.823C291.959 101.469 292.915 100.354 294.19 100.274C294.269 100.274 294.429 100.274 294.508 100.274C295.226 100.274 296.022 100.593 296.58 101.071L297.218 100.035C296.421 99.3186 295.465 99 294.429 99C292.277 99.0796 290.604 100.911 290.684 103.062C290.763 105.053 292.357 106.646 294.429 106.805C295.544 106.805 296.58 106.407 297.377 105.611L296.66 104.655C296.182 105.053 295.385 105.372 294.588 105.451Z" fill="#D4A351"/>
<path d="M299.688 106.566H301.122V100.195H304.469V106.566H305.824V99H299.688V106.566Z" fill="#D4A351"/>
<path d="M311.64 102.424C311.481 102.902 311.322 103.38 311.322 103.38C311.322 103.38 311.162 102.902 310.923 102.345L309.329 98.9996H307.815L310.764 104.814C310.604 105.212 310.365 105.451 309.967 105.451C309.648 105.451 309.329 105.292 309.09 105.053L308.453 106.088C308.851 106.407 309.409 106.566 309.967 106.566C311.082 106.566 311.561 105.69 311.879 104.893L314.19 98.9199H312.756L311.64 102.424Z" fill="#D4A351"/>
<path d="M319.131 101.947H317.617V100.195H320.884V99H316.262V106.487H319.131C320.405 106.566 321.521 105.611 321.601 104.336C321.68 103.062 320.724 101.947 319.449 101.867C319.37 101.947 319.29 101.947 319.131 101.947ZM318.892 105.372H317.617V103.142H318.892C319.449 103.062 320.007 103.54 320.087 104.097C320.087 104.177 320.087 104.177 320.087 104.257C320.087 104.814 319.688 105.372 319.131 105.372C319.051 105.372 318.971 105.372 318.892 105.372Z" fill="#D4A351"/>
<path d="M324.708 101.071C324.708 104.018 324.23 105.213 323.115 105.372V106.646C325.187 106.567 326.063 104.735 326.063 101.071V100.195H328.055V106.567H329.41V99.0801H324.708V101.071Z" fill="#D4A351"/>
<path d="M334.191 103.381C333.952 103.859 333.553 104.576 333.553 104.576C333.553 104.576 333.633 103.859 333.633 103.381V99.0801H332.278V106.567H333.633L336.502 102.266C336.82 101.788 337.139 101.071 337.139 101.071C337.139 101.071 337.059 101.788 337.059 102.266V106.567H338.414V99.0801H337.059L334.191 103.381Z" fill="#D4A351"/>
<path d="M344.789 102.584L346.94 99H345.426L343.673 102.106H342.637V99H341.282V106.566H342.637V103.301H343.673L345.506 106.566H347.02L344.789 102.664V102.584Z" fill="#D4A351"/>
<path d="M351.084 103.381C350.844 103.859 350.446 104.576 350.446 104.576C350.446 104.576 350.526 103.859 350.526 103.381V99.0801H349.171V106.567H350.526L353.394 102.266C353.713 101.788 354.032 101.071 354.032 101.071C354.032 101.071 353.952 101.788 353.952 102.266V106.567H355.307V99.0801H353.952L351.084 103.381Z" fill="#D4A351"/>
<path d="M36.3355 32.6553H47.6505C48.1286 32.6553 48.527 33.0535 48.527 33.5314V36.7969C48.527 37.2747 48.1286 37.673 47.6505 37.673H36.3355C35.8574 37.673 35.459 37.2747 35.459 36.7969V33.5314C35.459 33.0535 35.8574 32.6553 36.3355 32.6553Z" fill="#D4A351"/>
<path d="M36.3355 38.8672H47.6505C48.1286 38.8672 48.527 39.2654 48.527 39.7433V43.0088C48.527 43.4867 48.1286 43.8849 47.6505 43.8849H36.3355C35.8574 43.8849 35.459 43.4867 35.459 43.0088V39.7433C35.459 39.2654 35.8574 38.8672 36.3355 38.8672Z" fill="#D4A351"/>
<path d="M36.3355 45.1592H47.6505C48.1286 45.1592 48.527 45.5574 48.527 46.0353V49.3008C48.527 49.7787 48.1286 50.1769 47.6505 50.1769H36.3355C35.8574 50.1769 35.459 49.7787 35.459 49.3008V46.0353C35.459 45.5574 35.8574 45.1592 36.3355 45.1592Z" fill="#D4A351"/>
<path d="M56.4952 38.8672H67.8101C68.2882 38.8672 68.6867 39.2654 68.6867 39.7433V43.0088C68.6867 43.4867 68.2882 43.8849 67.8101 43.8849H56.4952C56.0171 43.8849 55.6187 43.4867 55.6187 43.0088V39.7433C55.6187 39.2654 56.0171 38.8672 56.4952 38.8672Z" fill="#D4A351"/>
<path d="M56.4952 45.1592H67.8101C68.2882 45.1592 68.6867 45.5574 68.6867 46.0353V49.3008C68.6867 49.7787 68.2882 50.1769 67.8101 50.1769H56.4952C56.0171 50.1769 55.6187 49.7787 55.6187 49.3008V46.0353C55.6187 45.5574 56.0171 45.1592 56.4952 45.1592Z" fill="#D4A351"/>
<path d="M76.6551 26.4424H87.9701C88.4482 26.4424 88.8466 26.8406 88.8466 27.3185V30.584C88.8466 31.0619 88.4482 31.4601 87.9701 31.4601H76.6551C76.177 31.4601 75.7786 31.0619 75.7786 30.584V27.3185C75.7786 26.8406 76.177 26.4424 76.6551 26.4424Z" fill="#D4A351"/>
<path d="M76.6551 32.6553H87.9701C88.4482 32.6553 88.8466 33.0535 88.8466 33.5314V36.7969C88.8466 37.2747 88.4482 37.673 87.9701 37.673H76.6551C76.177 37.673 75.7786 37.2747 75.7786 36.7969V33.5314C75.7786 33.0535 76.177 32.6553 76.6551 32.6553Z" fill="#D4A351"/>
<path d="M76.6551 38.8672H87.9701C88.4482 38.8672 88.8466 39.2654 88.8466 39.7433V43.0088C88.8466 43.4867 88.4482 43.8849 87.9701 43.8849H76.6551C76.177 43.8849 75.7786 43.4867 75.7786 43.0088V39.7433C75.7786 39.2654 76.177 38.8672 76.6551 38.8672Z" fill="#D4A351"/>
<path d="M76.6551 45.1592H87.9701C88.4482 45.1592 88.8466 45.5574 88.8466 46.0353V49.3008C88.8466 49.7787 88.4482 50.1769 87.9701 50.1769H76.6551C76.177 50.1769 75.7786 49.7787 75.7786 49.3008V46.0353C75.7786 45.5574 76.177 45.1592 76.6551 45.1592Z" fill="#D4A351"/>
<path d="M96.7352 13.9385H108.05C108.528 13.9385 108.927 14.3367 108.927 14.8146V18.0801C108.927 18.5579 108.528 18.9562 108.05 18.9562H96.7352C96.2571 18.9562 95.8586 18.5579 95.8586 18.0801V14.8146C95.8586 14.3367 96.2571 13.9385 96.7352 13.9385Z" fill="#D4A351"/>
<path d="M96.7352 20.1504H108.05C108.528 20.1504 108.927 20.5486 108.927 21.0265V24.292C108.927 24.7699 108.528 25.1681 108.05 25.1681H96.7352C96.2571 25.1681 95.8586 24.7699 95.8586 24.292V21.0265C95.8586 20.5486 96.2571 20.1504 96.7352 20.1504Z" fill="#D4A351"/>
<path d="M96.7352 26.4424H108.05C108.528 26.4424 108.927 26.8406 108.927 27.3185V30.584C108.927 31.0619 108.528 31.4601 108.05 31.4601H96.7352C96.2571 31.4601 95.8586 31.0619 95.8586 30.584V27.3185C95.8586 26.8406 96.2571 26.4424 96.7352 26.4424Z" fill="#D4A351"/>
<path d="M96.7352 32.6553H108.05C108.528 32.6553 108.927 33.0535 108.927 33.5314V36.7969C108.927 37.2747 108.528 37.673 108.05 37.673H96.7352C96.2571 37.673 95.8586 37.2747 95.8586 36.7969V33.5314C95.8586 33.0535 96.2571 32.6553 96.7352 32.6553Z" fill="#D4A351"/>
<path d="M96.7352 38.8672H108.05C108.528 38.8672 108.927 39.2654 108.927 39.7433V43.0088C108.927 43.4867 108.528 43.8849 108.05 43.8849H96.7352C96.2571 43.8849 95.8586 43.4867 95.8586 43.0088V39.7433C95.8586 39.2654 96.2571 38.8672 96.7352 38.8672Z" fill="#D4A351"/>
<path d="M96.7352 45.1592H108.05C108.528 45.1592 108.927 45.5574 108.927 46.0353V49.3008C108.927 49.7787 108.528 50.1769 108.05 50.1769H96.7352C96.2571 50.1769 95.8586 49.7787 95.8586 49.3008V46.0353C95.8586 45.5574 96.2571 45.1592 96.7352 45.1592Z" fill="#D4A351"/>
<path d="M137.055 13.9385H148.37C148.848 13.9385 149.246 14.3367 149.246 14.8146V18.0801C149.246 18.5579 148.848 18.9562 148.37 18.9562H137.055C136.577 18.9562 136.178 18.5579 136.178 18.0801V14.8146C136.178 14.3367 136.497 13.9385 137.055 13.9385Z" fill="#D4A351"/>
<path d="M137.055 20.1504H148.37C148.848 20.1504 149.246 20.5486 149.246 21.0265V24.292C149.246 24.7699 148.848 25.1681 148.37 25.1681H137.055C136.577 25.1681 136.178 24.7699 136.178 24.292V21.0265C136.178 20.5486 136.497 20.1504 137.055 20.1504Z" fill="#D4A351"/>
<path d="M137.055 26.4424H148.37C148.848 26.4424 149.246 26.8406 149.246 27.3185V30.584C149.246 31.0619 148.848 31.4601 148.37 31.4601H137.055C136.577 31.4601 136.178 31.0619 136.178 30.584V27.3185C136.178 26.8406 136.497 26.4424 137.055 26.4424Z" fill="#D4A351"/>
<path d="M137.055 32.6553H148.37C148.848 32.6553 149.246 33.0535 149.246 33.5314V36.7969C149.246 37.2747 148.848 37.673 148.37 37.673H137.055C136.577 37.673 136.178 37.2747 136.178 36.7969V33.5314C136.178 33.0535 136.497 32.6553 137.055 32.6553Z" fill="#D4A351"/>
<path d="M137.055 38.8672H148.37C148.848 38.8672 149.246 39.2654 149.246 39.7433V43.0088C149.246 43.4867 148.848 43.8849 148.37 43.8849H137.055C136.577 43.8849 136.178 43.4867 136.178 43.0088V39.7433C136.178 39.2654 136.497 38.8672 137.055 38.8672Z" fill="#D4A351"/>
<path d="M137.055 45.1592H148.37C148.848 45.1592 149.246 45.5574 149.246 46.0353V49.3008C149.246 49.7787 148.848 50.1769 148.37 50.1769H137.055C136.577 50.1769 136.178 49.7787 136.178 49.3008V46.0353C136.178 45.5574 136.497 45.1592 137.055 45.1592Z" fill="#D4A351"/>
<path d="M116.895 20.1504H128.21C128.688 20.1504 129.087 20.5486 129.087 21.0265V24.292C129.087 24.7699 128.688 25.1681 128.21 25.1681H116.895C116.417 25.1681 116.019 24.7699 116.019 24.292V21.0265C116.019 20.5486 116.417 20.1504 116.895 20.1504Z" fill="#D4A351"/>
<path d="M116.895 26.4424H128.21C128.688 26.4424 129.087 26.8406 129.087 27.3185V30.584C129.087 31.0619 128.688 31.4601 128.21 31.4601H116.895C116.417 31.4601 116.019 31.0619 116.019 30.584V27.3185C116.019 26.8406 116.417 26.4424 116.895 26.4424Z" fill="#D4A351"/>
<path d="M116.895 32.6553H128.21C128.688 32.6553 129.087 33.0535 129.087 33.5314V36.7969C129.087 37.2747 128.688 37.673 128.21 37.673H116.895C116.417 37.673 116.019 37.2747 116.019 36.7969V33.5314C116.019 33.0535 116.417 32.6553 116.895 32.6553Z" fill="#D4A351"/>
<path d="M116.895 38.8672H128.21C128.688 38.8672 129.087 39.2654 129.087 39.7433V43.0088C129.087 43.4867 128.688 43.8849 128.21 43.8849H116.895C116.417 43.8849 116.019 43.4867 116.019 43.0088V39.7433C116.019 39.2654 116.417 38.8672 116.895 38.8672Z" fill="#D4A351"/>
<path d="M116.895 45.1592H128.21C128.688 45.1592 129.087 45.5574 129.087 46.0353V49.3008C129.087 49.7787 128.688 50.1769 128.21 50.1769H116.895C116.417 50.1769 116.019 49.7787 116.019 49.3008V46.0353C116.019 45.5574 116.417 45.1592 116.895 45.1592Z" fill="#D4A351"/>
<path d="M173.47 55.274C173.55 55.5129 173.709 55.7519 173.789 55.9908C174.028 56.628 174.028 57.4244 173.629 57.9819C173.55 58.0616 173.55 58.1412 173.47 58.1412H357.378C358.653 57.2651 360.247 56.2297 362 55.1943L173.47 55.274Z" fill="#D4A351"/>
<path d="M142.314 55.274C142.394 55.5129 142.473 55.6722 142.633 55.9111C142.951 56.5483 142.872 57.3448 142.473 57.9023C142.393 57.9819 142.314 58.0616 142.234 58.1412H161.916C162.633 57.2651 163.669 56.2297 164.625 55.1943H142.314V55.274Z" fill="#D4A351"/>
<path d="M54.4236 55.274L55.3798 58.2209H67.2526V58.3005C67.2526 58.3005 71.157 59.2563 72.4319 60.451C73.2288 61.2474 73.3085 61.805 73.3085 61.9642V88.2474C77.452 83.9465 82.1533 80.2828 87.4124 77.3359V61.8846C87.4124 61.7253 87.4124 61.1678 88.2889 60.3713C89.1654 59.5749 91.3965 58.8581 92.5918 58.4598C93.787 58.7784 96.0181 59.4952 96.8946 60.3713C97.7711 61.2474 97.7711 61.7253 97.7711 61.8846V72.1589C102.393 70.2474 107.094 68.6545 111.875 67.3802V61.8846C111.875 61.7253 111.955 61.1678 112.752 60.3713C114.026 59.1766 117.931 58.2209 117.931 58.2209V58.1412H130.521C131.238 57.2651 132.274 56.2297 133.23 55.1943H54.4236V55.274Z" fill="#D4A351"/>
</g>
<defs>
<clipPath id="clip0_6_260">
<rect width="362" height="108" fill="white"/>
</clipPath>
</defs>
</svg>
